<?xml version="1.0" encoding="UTF-8" standalone="no"?>
<!DOCTYPE svg PUBLIC "-//W3C//DTD SVG 1.1//EN"
 "http://www.w3.org/Graphics/SVG/1.1/DTD/svg11.dtd">
<!-- Generated by graphviz version 2.43.0 (0)
 -->
<!-- Title: MELD Feature Extraction Using BiLSTM Pages: 1 -->
<svg width="517pt" height="1554pt"
 viewBox="0.00 0.00 517.00 1554.42" xmlns="http://www.w3.org/2000/svg" xmlns:xlink="http://www.w3.org/1999/xlink">
<g id="graph0" class="graph" transform="scale(1 1) rotate(0) translate(4 1550.42)">
<title>MELD Feature Extraction Using BiLSTM</title>
<polygon fill="#2a2a2a" stroke="transparent" points="-4,4 -4,-1550.42 513,-1550.42 513,4 -4,4"/>
<text text-anchor="start" x="24.5" y="-1524.22" font-family="Arial" font-weight="bold" font-size="24.00" fill="#50e3c2">MELD Feature Extraction Using BiLSTM</text>
<g id="clust1" class="cluster">
<title>cluster_input</title>
<polygon fill="#2a2a2a" stroke="white" stroke-width="0" points="21,-1336.57 21,-1504.42 416,-1504.42 416,-1336.57 21,-1336.57"/>
<text text-anchor="middle" x="218.5" y="-1490.82" font-family="Arial" font-size="12.00" fill="white">INPUT DATA PROCESSING</text>
</g>
<g id="clust2" class="cluster">
<title>cluster_projection</title>
<polygon fill="#2a2a2a" stroke="white" stroke-width="0" points="17,-1230.57 17,-1308.57 422,-1308.57 422,-1230.57 17,-1230.57"/>
<text text-anchor="middle" x="219.5" y="-1294.97" font-family="Arial" font-size="12.00" fill="white">MODALITY PROJECTION LAYER</text>
</g>
<g id="clust3" class="cluster">
<title>cluster_gating</title>
<polygon fill="#2a2a2a" stroke="white" stroke-width="0" points="22,-896.89 22,-1202.57 224,-1202.57 224,-896.89 22,-896.89"/>
<text text-anchor="middle" x="123" y="-1188.97" font-family="Arial" font-size="12.00" fill="white">ADAPTIVE GATING MECHANISM</text>
</g>
<g id="clust4" class="cluster">
<title>cluster_bilstm</title>
<polygon fill="#2a2a2a" stroke="white" stroke-width="0" points="8,-372.85 8,-868.89 256,-868.89 256,-372.85 8,-372.85"/>
<text text-anchor="middle" x="132" y="-855.29" font-family="Arial" font-size="12.00" fill="white">BILSTM PROCESSING LAYER</text>
</g>
<g id="clust5" class="cluster">
<title>cluster_postprocess</title>
<polygon fill="#2a2a2a" stroke="white" stroke-width="0" points="22,-8 22,-344.85 220,-344.85 220,-8 22,-8"/>
<text text-anchor="middle" x="121" y="-331.25" font-family="Arial" font-size="12.00" fill="white">POST&#45;PROCESSING &amp; OUTPUT</text>
</g>
<g id="clust6" class="cluster">
<title>cluster_training</title>
<polygon fill="#2a2a2a" stroke="white" stroke-width="0" points="264,-693.26 264,-975.61 475,-975.61 475,-693.26 264,-693.26"/>
<text text-anchor="middle" x="369.5" y="-962.01" font-family="Arial" font-size="12.00" fill="white">TRAINING &amp; LOSS COMPUTATION</text>
</g>
<g id="clust7" class="cluster">
<title>cluster_output</title>
<polygon fill="#2a2a2a" stroke="white" stroke-width="0" points="228,-177.59 228,-344.14 436,-344.14 436,-177.59 228,-177.59"/>
<text text-anchor="middle" x="332" y="-330.54" font-family="Arial" font-size="12.00" fill="white">FEATURE EXTRACTION OUTPUT</text>
</g>
<!-- raw_input -->
<g id="node1" class="node">
<title>raw_input</title>
<ellipse fill="#4a90e2" stroke="#4a90e2" cx="214" cy="-1454.21" rx="80.72" ry="21.43"/>
<text text-anchor="middle" x="214" y="-1457.21" font-family="Arial" font-size="10.00">Raw Multimodal Data</text>
<text text-anchor="middle" x="214" y="-1446.21" font-family="Arial" font-size="10.00">(Text + Audio + Video)</text>
</g>
<!-- text_features -->
<g id="node2" class="node">
<title>text_features</title>
<ellipse fill="#4a90e2" stroke="#4a90e2" cx="83" cy="-1365.78" rx="54.39" ry="21.43"/>
<text text-anchor="middle" x="83" y="-1368.78" font-family="Arial" font-size="10.00">Text Features</text>
<text text-anchor="middle" x="83" y="-1357.78" font-family="Arial" font-size="10.00">(768 dim)</text>
</g>
<!-- raw_input&#45;&gt;text_features -->
<g id="edge1" class="edge">
<title>raw_input&#45;&gt;text_features</title>
<path fill="none" stroke="white" d="M185.25,-1434.24C165.61,-1421.29 139.46,-1404.03 118.52,-1390.22"/>
<polygon fill="white" stroke="white" points="120.17,-1387.11 109.89,-1384.53 116.31,-1392.96 120.17,-1387.11"/>
<text text-anchor="middle" x="167" y="-1407.8" font-family="Arial" font-size="9.00" fill="#ffd700">extract</text>
</g>
<!-- audio_features -->
<g id="node3" class="node">
<title>audio_features</title>
<ellipse fill="#4a90e2" stroke="#4a90e2" cx="214" cy="-1365.78" rx="58.88" ry="21.43"/>
<text text-anchor="middle" x="214" y="-1368.78" font-family="Arial" font-size="10.00">Audio Features</text>
<text text-anchor="middle" x="214" y="-1357.78" font-family="Arial" font-size="10.00">(6373 dim)</text>
</g>
<!-- raw_input&#45;&gt;audio_features -->
<g id="edge2" class="edge">
<title>raw_input&#45;&gt;audio_features</title>
<path fill="none" stroke="white" d="M214,-1432.73C214,-1422.18 214,-1409.11 214,-1397.39"/>
<polygon fill="white" stroke="white" points="217.5,-1397.12 214,-1387.12 210.5,-1397.12 217.5,-1397.12"/>
<text text-anchor="middle" x="228" y="-1407.8" font-family="Arial" font-size="9.00" fill="#ffd700">extract</text>
</g>
<!-- video_features -->
<g id="node4" class="node">
<title>video_features</title>
<ellipse fill="#4a90e2" stroke="#4a90e2" cx="349" cy="-1365.78" rx="58.88" ry="21.43"/>
<text text-anchor="middle" x="349" y="-1368.78" font-family="Arial" font-size="10.00">Video Features</text>
<text text-anchor="middle" x="349" y="-1357.78" font-family="Arial" font-size="10.00">(2304 dim)</text>
</g>
<!-- raw_input&#45;&gt;video_features -->
<g id="edge3" class="edge">
<title>raw_input&#45;&gt;video_features</title>
<path fill="none" stroke="white" d="M243.63,-1434.24C263.96,-1421.23 291.06,-1403.88 312.69,-1390.03"/>
<polygon fill="white" stroke="white" points="314.75,-1392.87 321.28,-1384.53 310.98,-1386.97 314.75,-1392.87"/>
<text text-anchor="middle" x="299" y="-1407.8" font-family="Arial" font-size="9.00" fill="#ffd700">extract</text>
</g>
<!-- text_proj -->
<g id="node5" class="node">
<title>text_proj</title>
<polygon fill="#7ed321" stroke="#7ed321" points="135.5,-1279.57 24.5,-1279.57 24.5,-1238.57 135.5,-1238.57 135.5,-1279.57"/>
<text text-anchor="middle" x="80" y="-1267.57" font-family="Arial" font-size="10.00">Text Projector</text>
<text text-anchor="middle" x="80" y="-1256.57" font-family="Arial" font-size="10.00">Linear(768→256)</text>
<text text-anchor="middle" x="80" y="-1245.57" font-family="Arial" font-size="10.00">+ ReLU + LayerNorm</text>
</g>
<!-- text_features&#45;&gt;text_proj -->
<g id="edge4" class="edge">
<title>text_features&#45;&gt;text_proj</title>
<path fill="none" stroke="white" d="M82.41,-1344.35C81.97,-1328.87 81.36,-1307.38 80.86,-1289.97"/>
<polygon fill="white" stroke="white" points="84.35,-1289.64 80.56,-1279.75 77.35,-1289.85 84.35,-1289.64"/>
<text text-anchor="middle" x="96" y="-1319.37" font-family="Arial" font-size="9.00" fill="#98fb98">project</text>
</g>
<!-- audio_proj -->
<g id="node6" class="node">
<title>audio_proj</title>
<polygon fill="#7ed321" stroke="#7ed321" points="274.5,-1279.57 153.5,-1279.57 153.5,-1238.57 274.5,-1238.57 274.5,-1279.57"/>
<text text-anchor="middle" x="214" y="-1267.57" font-family="Arial" font-size="10.00">Audio Projector</text>
<text text-anchor="middle" x="214" y="-1256.57" font-family="Arial" font-size="10.00">Linear(6373→512→256)</text>
<text text-anchor="middle" x="214" y="-1245.57" font-family="Arial" font-size="10.00">+ ReLU + LayerNorm</text>
</g>
<!-- audio_features&#45;&gt;audio_proj -->
<g id="edge5" class="edge">
<title>audio_features&#45;&gt;audio_proj</title>
<path fill="none" stroke="white" d="M214,-1344.35C214,-1328.87 214,-1307.38 214,-1289.97"/>
<polygon fill="white" stroke="white" points="217.5,-1289.75 214,-1279.75 210.5,-1289.75 217.5,-1289.75"/>
<text text-anchor="middle" x="228" y="-1319.37" font-family="Arial" font-size="9.00" fill="#98fb98">project</text>
</g>
<!-- video_proj -->
<g id="node7" class="node">
<title>video_proj</title>
<polygon fill="#7ed321" stroke="#7ed321" points="413.5,-1279.57 292.5,-1279.57 292.5,-1238.57 413.5,-1238.57 413.5,-1279.57"/>
<text text-anchor="middle" x="353" y="-1267.57" font-family="Arial" font-size="10.00">Video Projector</text>
<text text-anchor="middle" x="353" y="-1256.57" font-family="Arial" font-size="10.00">Linear(2304→512→256)</text>
<text text-anchor="middle" x="353" y="-1245.57" font-family="Arial" font-size="10.00">+ ReLU + LayerNorm</text>
</g>
<!-- video_features&#45;&gt;video_proj -->
<g id="edge6" class="edge">
<title>video_features&#45;&gt;video_proj</title>
<path fill="none" stroke="white" d="M349.78,-1344.35C350.37,-1328.87 351.19,-1307.38 351.86,-1289.97"/>
<polygon fill="white" stroke="white" points="355.36,-1289.88 352.25,-1279.75 348.37,-1289.61 355.36,-1289.88"/>
<text text-anchor="middle" x="364" y="-1319.37" font-family="Arial" font-size="9.00" fill="#98fb98">project</text>
</g>
<!-- gate_concat -->
<g id="node8" class="node">
<title>gate_concat</title>
<ellipse fill="#bd10e0" stroke="#bd10e0" cx="100" cy="-1144.58" rx="70.01" ry="28.98"/>
<text text-anchor="middle" x="100" y="-1153.08" font-family="Arial" font-size="10.00">Concatenate</text>
<text text-anchor="middle" x="100" y="-1142.08" font-family="Arial" font-size="10.00">Projected Features</text>
<text text-anchor="middle" x="100" y="-1131.08" font-family="Arial" font-size="10.00">(256×3 = 768)</text>
</g>
<!-- text_proj&#45;&gt;gate_concat -->
<g id="edge7" class="edge">
<title>text_proj&#45;&gt;gate_concat</title>
<path fill="none" stroke="white" d="M83.48,-1238.48C86.17,-1223.39 89.95,-1202.08 93.23,-1183.67"/>
<polygon fill="white" stroke="white" points="96.68,-1184.26 94.98,-1173.8 89.79,-1183.04 96.68,-1184.26"/>
<text text-anchor="middle" x="103" y="-1213.37" font-family="Arial" font-size="9.00" fill="#ff69b4">concat</text>
</g>
<!-- gated_features -->
<g id="node10" class="node">
<title>gated_features</title>
<ellipse fill="#bd10e0" stroke="#bd10e0" cx="132" cy="-926.11" rx="84.29" ry="21.43"/>
<text text-anchor="middle" x="132" y="-929.11" font-family="Arial" font-size="10.00">Gated Features</text>
<text text-anchor="middle" x="132" y="-918.11" font-family="Arial" font-size="10.00">(Element&#45;wise multiply)</text>
</g>
<!-- text_proj&#45;&gt;gated_features -->
<g id="edge12" class="edge">
<title>text_proj&#45;&gt;gated_features</title>
<path fill="none" stroke="white" d="M123.71,-1238.53C130.76,-1235.68 138.03,-1232.92 145,-1230.57 161.95,-1224.85 173.03,-1234.71 184,-1220.57 216.31,-1178.93 191.66,-1033.27 174,-983.61 170.34,-973.31 164.11,-963.31 157.56,-954.66"/>
<polygon fill="white" stroke="white" points="160.24,-952.41 151.24,-946.81 154.78,-956.8 160.24,-952.41"/>
<text text-anchor="middle" x="205.5" y="-1090.39" font-family="Arial" font-size="9.00" fill="#87ceeb">gate</text>
</g>
<!-- audio_proj&#45;&gt;gate_concat -->
<g id="edge8" class="edge">
<title>audio_proj&#45;&gt;gate_concat</title>
<path fill="none" stroke="white" d="M194.14,-1238.48C177.51,-1222.07 153.41,-1198.28 133.76,-1178.89"/>
<polygon fill="white" stroke="white" points="136.04,-1176.23 126.47,-1171.7 131.13,-1181.21 136.04,-1176.23"/>
<text text-anchor="middle" x="187" y="-1213.37" font-family="Arial" font-size="9.00" fill="#ff69b4">concat</text>
</g>
<!-- audio_proj&#45;&gt;gated_features -->
<g id="edge13" class="edge">
<title>audio_proj&#45;&gt;gated_features</title>
<path fill="none" stroke="white" d="M216.14,-1238.57C219.25,-1206.82 224.02,-1142.03 218,-1087.59 214.2,-1053.19 211.64,-1044.54 201,-1011.61 196.84,-998.72 196.62,-994.8 189,-983.61 181.71,-972.9 172.2,-962.51 163.04,-953.63"/>
<polygon fill="white" stroke="white" points="165.18,-950.84 155.49,-946.55 160.39,-955.94 165.18,-950.84"/>
<text text-anchor="middle" x="227.5" y="-1090.39" font-family="Arial" font-size="9.00" fill="#87ceeb">gate</text>
</g>
<!-- video_proj&#45;&gt;gate_concat -->
<g id="edge9" class="edge">
<title>video_proj&#45;&gt;gate_concat</title>
<path fill="none" stroke="white" d="M308.93,-1238.48C266.41,-1219.57 201.89,-1190.89 155.81,-1170.39"/>
<polygon fill="white" stroke="white" points="157.12,-1167.15 146.56,-1166.28 154.28,-1173.54 157.12,-1167.15"/>
<text text-anchor="middle" x="277" y="-1213.37" font-family="Arial" font-size="9.00" fill="#ff69b4">concat</text>
</g>
<!-- video_proj&#45;&gt;gated_features -->
<g id="edge14" class="edge">
<title>video_proj&#45;&gt;gated_features</title>
<path fill="none" stroke="white" d="M346.14,-1238.54C328.62,-1190.75 278.38,-1065.78 205,-983.61 194.68,-972.05 181.74,-961.16 169.64,-952.09"/>
<polygon fill="white" stroke="white" points="171.57,-949.17 161.43,-946.11 167.45,-954.83 171.57,-949.17"/>
<text text-anchor="middle" x="291.5" y="-1090.39" font-family="Arial" font-size="9.00" fill="#87ceeb">gate</text>
</g>
<!-- gate_weights -->
<g id="node9" class="node">
<title>gate_weights</title>
<ellipse fill="#bd10e0" stroke="#bd10e0" cx="107" cy="-1040.6" rx="56.64" ry="28.98"/>
<text text-anchor="middle" x="107" y="-1049.1" font-family="Arial" font-size="10.00">Gate Network</text>
<text text-anchor="middle" x="107" y="-1038.1" font-family="Arial" font-size="10.00">Linear(768→3)</text>
<text text-anchor="middle" x="107" y="-1027.1" font-family="Arial" font-size="10.00">+ Softmax</text>
</g>
<!-- gate_concat&#45;&gt;gate_weights -->
<g id="edge10" class="edge">
<title>gate_concat&#45;&gt;gate_weights</title>
<path fill="none" stroke="white" d="M101.93,-1115.44C102.69,-1104.41 103.57,-1091.57 104.38,-1079.73"/>
<polygon fill="white" stroke="white" points="107.88,-1079.86 105.07,-1069.64 100.9,-1079.38 107.88,-1079.86"/>
<text text-anchor="middle" x="139" y="-1090.39" font-family="Arial" font-size="9.00" fill="#ff69b4">compute weights</text>
</g>
<!-- gate_weights&#45;&gt;gated_features -->
<g id="edge11" class="edge">
<title>gate_weights&#45;&gt;gated_features</title>
<path fill="none" stroke="white" d="M113.24,-1011.5C116.91,-995.01 121.54,-974.17 125.28,-957.33"/>
<polygon fill="white" stroke="white" points="128.73,-957.95 127.48,-947.43 121.9,-956.43 128.73,-957.95"/>
<text text-anchor="middle" x="144.5" y="-986.41" font-family="Arial" font-size="9.00" fill="#87ceeb">apply gating</text>
</g>
<!-- input_norm -->
<g id="node11" class="node">
<title>input_norm</title>
<ellipse fill="#7ed321" stroke="#7ed321" cx="132" cy="-818.68" rx="71.34" ry="21.43"/>
<text text-anchor="middle" x="132" y="-821.68" font-family="Arial" font-size="10.00">Input Normalization</text>
<text text-anchor="middle" x="132" y="-810.68" font-family="Arial" font-size="10.00">LayerNorm(768)</text>
</g>
<!-- gated_features&#45;&gt;input_norm -->
<g id="edge15" class="edge">
<title>gated_features&#45;&gt;input_norm</title>
<path fill="none" stroke="white" d="M132,-904.78C132,-889.32 132,-867.79 132,-850.26"/>
<polygon fill="white" stroke="white" points="135.5,-849.94 132,-839.94 128.5,-849.94 135.5,-849.94"/>
<text text-anchor="middle" x="152.5" y="-879.69" font-family="Arial" font-size="9.00" fill="#90ee90">normalize</text>
</g>
<!-- packed_seq -->
<g id="node12" class="node">
<title>packed_seq</title>
<ellipse fill="#7ed321" stroke="#7ed321" cx="132" cy="-722.48" rx="88.28" ry="21.43"/>
<text text-anchor="middle" x="132" y="-725.48" font-family="Arial" font-size="10.00">Pack Padded Sequence</text>
<text text-anchor="middle" x="132" y="-714.48" font-family="Arial" font-size="10.00">(Handle variable lengths)</text>
</g>
<!-- input_norm&#45;&gt;packed_seq -->
<g id="edge16" class="edge">
<title>input_norm&#45;&gt;packed_seq</title>
<path fill="none" stroke="white" d="M132,-797.24C132,-784.65 132,-768.27 132,-754.14"/>
<polygon fill="white" stroke="white" points="135.5,-753.88 132,-743.88 128.5,-753.88 135.5,-753.88"/>
<text text-anchor="middle" x="142" y="-764.49" font-family="Arial" font-size="9.00" fill="#90ee90">pack</text>
</g>
<!-- bilstm -->
<g id="node13" class="node">
<title>bilstm</title>
<polygon fill="#d0021b" stroke="#d0021b" points="132,-655.26 16,-614.26 132,-573.26 248,-614.26 132,-655.26"/>
<text text-anchor="middle" x="132" y="-622.76" font-family="Arial" font-size="10.00">Bidirectional LSTM</text>
<text text-anchor="middle" x="132" y="-611.76" font-family="Arial" font-size="10.00">Hidden: 128, Layers: 2</text>
<text text-anchor="middle" x="132" y="-600.76" font-family="Arial" font-size="10.00">Dropout: 0.5</text>
</g>
<!-- packed_seq&#45;&gt;bilstm -->
<g id="edge17" class="edge">
<title>packed_seq&#45;&gt;bilstm</title>
<path fill="none" stroke="white" d="M132,-701C132,-690.92 132,-678.28 132,-665.83"/>
<polygon fill="white" stroke="white" points="135.5,-665.47 132,-655.47 128.5,-665.47 135.5,-665.47"/>
<text text-anchor="middle" x="148.5" y="-676.06" font-family="Arial" font-size="9.00" fill="#90ee90">process</text>
</g>
<!-- unpack_seq -->
<g id="node14" class="node">
<title>unpack_seq</title>
<ellipse fill="#7ed321" stroke="#7ed321" cx="132" cy="-506.05" rx="86.03" ry="21.43"/>
<text text-anchor="middle" x="132" y="-509.05" font-family="Arial" font-size="10.00">Unpack Sequence</text>
<text text-anchor="middle" x="132" y="-498.05" font-family="Arial" font-size="10.00">(Restore original format)</text>
</g>
<!-- bilstm&#45;&gt;unpack_seq -->
<g id="edge18" class="edge">
<title>bilstm&#45;&gt;unpack_seq</title>
<path fill="none" stroke="white" d="M132,-573.11C132,-561.27 132,-548.51 132,-537.39"/>
<polygon fill="white" stroke="white" points="135.5,-537.32 132,-527.32 128.5,-537.32 135.5,-537.32"/>
<text text-anchor="middle" x="147.5" y="-548.06" font-family="Arial" font-size="9.00" fill="#90ee90">unpack</text>
</g>
<!-- contextual_features -->
<g id="node15" class="node">
<title>contextual_features</title>
<ellipse fill="#f5a623" stroke="#f5a623" cx="132" cy="-409.84" rx="80.72" ry="28.98"/>
<text text-anchor="middle" x="132" y="-418.34" font-family="Arial" font-size="10.00">Contextual Features</text>
<text text-anchor="middle" x="132" y="-407.34" font-family="Arial" font-size="10.00">(Hidden: 256)</text>
<text text-anchor="middle" x="132" y="-396.34" font-family="Arial" font-size="10.00">[STORED FOR GNN]</text>
</g>
<!-- unpack_seq&#45;&gt;contextual_features -->
<g id="edge19" class="edge">
<title>unpack_seq&#45;&gt;contextual_features</title>
<path fill="none" stroke="white" d="M132,-484.61C132,-474.31 132,-461.48 132,-449.42"/>
<polygon fill="white" stroke="white" points="135.5,-449.11 132,-439.11 128.5,-449.11 135.5,-449.11"/>
<text text-anchor="middle" x="142.5" y="-459.64" font-family="Arial" font-size="9.00" fill="#90ee90">store</text>
</g>
<!-- post_norm -->
<g id="node16" class="node">
<title>post_norm</title>
<ellipse fill="#7ed321" stroke="#7ed321" cx="121" cy="-294.64" rx="91.43" ry="21.43"/>
<text text-anchor="middle" x="121" y="-297.64" font-family="Arial" font-size="10.00">Post&#45;LSTM Normalization</text>
<text text-anchor="middle" x="121" y="-286.64" font-family="Arial" font-size="10.00">LayerNorm(256)</text>
</g>
<!-- contextual_features&#45;&gt;post_norm -->
<g id="edge20" class="edge">
<title>contextual_features&#45;&gt;post_norm</title>
<path fill="none" stroke="white" d="M129.28,-380.86C127.67,-364.27 125.62,-343.23 123.97,-326.2"/>
<polygon fill="white" stroke="white" points="127.45,-325.81 123,-316.2 120.48,-326.49 127.45,-325.81"/>
<text text-anchor="middle" x="148.5" y="-355.65" font-family="Arial" font-size="9.00" fill="#dda0dd">normalize</text>
</g>
<!-- extracted_features -->
<g id="node23" class="node">
<title>extracted_features</title>
<polygon fill="#9013fe" stroke="#9013fe" points="361.5,-315.14 240.5,-315.14 240.5,-274.14 367.5,-274.14 367.5,-309.14 361.5,-315.14"/>
<polyline fill="none" stroke="#9013fe" points="361.5,-315.14 361.5,-309.14 "/>
<polyline fill="none" stroke="#9013fe" points="367.5,-309.14 361.5,-309.14 "/>
<text text-anchor="middle" x="304" y="-303.14" font-family="Arial" font-size="10.00">BiLSTM Features</text>
<text text-anchor="middle" x="304" y="-292.14" font-family="Arial" font-size="10.00">(Contextual Embeddings)</text>
<text text-anchor="middle" x="304" y="-281.14" font-family="Arial" font-size="10.00">For GNN Input</text>
</g>
<!-- contextual_features&#45;&gt;extracted_features -->
<g id="edge28" class="edge">
<title>contextual_features&#45;&gt;extracted_features</title>
<path fill="none" stroke="#00ffff" stroke-dasharray="5,2" d="M169.75,-384C198.24,-365.24 237.2,-339.61 265.8,-320.78"/>
<polygon fill="#00ffff" stroke="#00ffff" points="267.9,-323.59 274.33,-315.17 264.05,-317.74 267.9,-323.59"/>
<text text-anchor="middle" x="243.5" y="-355.65" font-family="Arial" font-size="9.00" fill="#00ffff">extract features</text>
</g>
<!-- dropout -->
<g id="node17" class="node">
<title>dropout</title>
<ellipse fill="#7ed321" stroke="#7ed321" cx="140" cy="-206.21" rx="55.31" ry="21.43"/>
<text text-anchor="middle" x="140" y="-209.21" font-family="Arial" font-size="10.00">Dropout Layer</text>
<text text-anchor="middle" x="140" y="-198.21" font-family="Arial" font-size="10.00">(p=0.5)</text>
</g>
<!-- post_norm&#45;&gt;dropout -->
<g id="edge21" class="edge">
<title>post_norm&#45;&gt;dropout</title>
<path fill="none" stroke="white" d="M125.5,-273.16C127.85,-262.5 130.75,-249.27 133.35,-237.46"/>
<polygon fill="white" stroke="white" points="136.8,-238.07 135.53,-227.55 129.96,-236.56 136.8,-238.07"/>
<text text-anchor="middle" x="153" y="-248.23" font-family="Arial" font-size="9.00" fill="#dda0dd">regularize</text>
</g>
<!-- classifier -->
<g id="node18" class="node">
<title>classifier</title>
<polygon fill="#9013fe" stroke="#9013fe" points="199.5,-139 102.5,-139 102.5,-98 199.5,-98 199.5,-139"/>
<text text-anchor="middle" x="151" y="-127" font-family="Arial" font-size="10.00">Emotion Classifier</text>
<text text-anchor="middle" x="151" y="-116" font-family="Arial" font-size="10.00">Linear(256→7)</text>
<text text-anchor="middle" x="151" y="-105" font-family="Arial" font-size="10.00">+ Dropout</text>
</g>
<!-- dropout&#45;&gt;classifier -->
<g id="edge22" class="edge">
<title>dropout&#45;&gt;classifier</title>
<path fill="none" stroke="white" d="M142.61,-184.9C143.97,-174.29 145.66,-161.1 147.17,-149.35"/>
<polygon fill="white" stroke="white" points="150.69,-149.44 148.49,-139.08 143.74,-148.55 150.69,-149.44"/>
<text text-anchor="middle" x="162.5" y="-159.8" font-family="Arial" font-size="9.00" fill="#dda0dd">classify</text>
</g>
<!-- predictions -->
<g id="node19" class="node">
<title>predictions</title>
<polygon fill="#9013fe" stroke="#9013fe" points="211,-52 208,-56 187,-56 184,-52 107,-52 107,-16 211,-16 211,-52"/>
<text text-anchor="middle" x="159" y="-37" font-family="Arial" font-size="10.00">Emotion Predictions</text>
<text text-anchor="middle" x="159" y="-26" font-family="Arial" font-size="10.00">(7 classes)</text>
</g>
<!-- classifier&#45;&gt;predictions -->
<g id="edge23" class="edge">
<title>classifier&#45;&gt;predictions</title>
<path fill="none" stroke="white" d="M152.9,-97.95C153.93,-87.3 155.22,-73.94 156.35,-62.28"/>
<polygon fill="white" stroke="white" points="159.85,-62.46 157.33,-52.17 152.89,-61.79 159.85,-62.46"/>
<text text-anchor="middle" x="170" y="-72.8" font-family="Arial" font-size="9.00" fill="#dda0dd">predict</text>
</g>
<!-- focal_loss -->
<g id="node20" class="node">
<title>focal_loss</title>
<polygon fill="#50e3c2" stroke="#50e3c2" points="437,-946.61 331,-946.61 331,-905.61 437,-905.61 437,-946.61"/>
<text text-anchor="middle" x="384" y="-934.61" font-family="Arial" font-size="10.00">Adaptive Focal Loss</text>
<text text-anchor="middle" x="384" y="-923.61" font-family="Arial" font-size="10.00">γ=2.0, α=0.8</text>
<text text-anchor="middle" x="384" y="-912.61" font-family="Arial" font-size="10.00">+ Label Smoothing</text>
</g>
<!-- predictions&#45;&gt;focal_loss -->
<g id="edge24" class="edge">
<title>predictions&#45;&gt;focal_loss</title>
<path fill="none" stroke="white" d="M211.06,-38.85C295.75,-46.56 454,-67.64 454,-117.5 454,-819.68 454,-819.68 454,-819.68 454,-850.27 433.3,-878.76 414.41,-898.4"/>
<polygon fill="white" stroke="white" points="411.92,-895.94 407.31,-905.48 416.86,-900.9 411.92,-895.94"/>
<text text-anchor="middle" x="481.5" y="-459.64" font-family="Arial" font-size="9.00" fill="#ffa07a">compute loss</text>
</g>
<!-- optimizer -->
<g id="node21" class="node">
<title>optimizer</title>
<ellipse fill="#50e3c2" stroke="#50e3c2" cx="351" cy="-818.68" rx="72.66" ry="28.98"/>
<text text-anchor="middle" x="351" y="-827.18" font-family="Arial" font-size="10.00">AdamW Optimizer</text>
<text text-anchor="middle" x="351" y="-816.18" font-family="Arial" font-size="10.00">LR: 0.0005</text>
<text text-anchor="middle" x="351" y="-805.18" font-family="Arial" font-size="10.00">Weight Decay: 0.01</text>
</g>
<!-- focal_loss&#45;&gt;optimizer -->
<g id="edge25" class="edge">
<title>focal_loss&#45;&gt;optimizer</title>
<path fill="none" stroke="white" d="M377.79,-905.28C373.59,-891.84 367.9,-873.66 362.84,-857.51"/>
<polygon fill="white" stroke="white" points="366.12,-856.27 359.79,-847.78 359.44,-858.37 366.12,-856.27"/>
<text text-anchor="middle" x="388.5" y="-879.69" font-family="Arial" font-size="9.00" fill="#ffa07a">optimize</text>
</g>
<!-- scheduler -->
<g id="node22" class="node">
<title>scheduler</title>
<ellipse fill="#50e3c2" stroke="#50e3c2" cx="349" cy="-722.48" rx="77.15" ry="21.43"/>
<text text-anchor="middle" x="349" y="-725.48" font-family="Arial" font-size="10.00">ReduceLROnPlateau</text>
<text text-anchor="middle" x="349" y="-714.48" font-family="Arial" font-size="10.00">Patience: 5</text>
</g>
<!-- optimizer&#45;&gt;scheduler -->
<g id="edge26" class="edge">
<title>optimizer&#45;&gt;scheduler</title>
<path fill="none" stroke="white" d="M350.41,-789.67C350.17,-778.38 349.89,-765.32 349.64,-753.8"/>
<polygon fill="white" stroke="white" points="353.14,-753.67 349.43,-743.75 346.14,-753.82 353.14,-753.67"/>
<text text-anchor="middle" x="369" y="-764.49" font-family="Arial" font-size="9.00" fill="#ffa07a">schedule</text>
</g>
<!-- scheduler&#45;&gt;bilstm -->
<g id="edge27" class="edge">
<title>scheduler&#45;&gt;bilstm</title>
<path fill="none" stroke="#ffff00" stroke-dasharray="5,2" d="M312.68,-703.7C278.83,-687.13 227.84,-662.17 188.65,-642.99"/>
<polygon fill="#ffff00" stroke="#ffff00" points="189.99,-639.75 179.47,-638.49 186.91,-646.03 189.99,-639.75"/>
<text text-anchor="middle" x="297.5" y="-676.06" font-family="Arial" font-size="9.00" fill="#ffff00">update weights</text>
</g>
<!-- enhanced_data -->
<g id="node24" class="node">
<title>enhanced_data</title>
<path fill="#f5a623" stroke="#f5a623" d="M380,-223.19C380,-225.27 347.73,-226.96 308,-226.96 268.27,-226.96 236,-225.27 236,-223.19 236,-223.19 236,-189.24 236,-189.24 236,-187.15 268.27,-185.46 308,-185.46 347.73,-185.46 380,-187.15 380,-189.24 380,-189.24 380,-223.19 380,-223.19"/>
<path fill="none" stroke="#f5a623" d="M380,-223.19C380,-221.11 347.73,-219.42 308,-219.42 268.27,-219.42 236,-221.11 236,-223.19"/>
<text text-anchor="middle" x="308" y="-209.21" font-family="Arial" font-size="10.00">Enhanced Dataset</text>
<text text-anchor="middle" x="308" y="-198.21" font-family="Arial" font-size="10.00">(Original + BiLSTM Features)</text>
</g>
<!-- extracted_features&#45;&gt;enhanced_data -->
<g id="edge29" class="edge">
<title>extracted_features&#45;&gt;enhanced_data</title>
<path fill="none" stroke="#00ffff" stroke-dasharray="5,2" d="M304.91,-274.03C305.41,-263.17 306.05,-249.43 306.61,-237.25"/>
<polygon fill="#00ffff" stroke="#00ffff" points="310.12,-237.2 307.08,-227.05 303.12,-236.87 310.12,-237.2"/>
<text text-anchor="middle" x="340.5" y="-248.23" font-family="Arial" font-size="9.00" fill="#00ffff">augment dataset</text>
</g>
</g>
</svg>
