<?xml version="1.0" encoding="UTF-8" standalone="no"?>
<!DOCTYPE svg PUBLIC "-//W3C//DTD SVG 1.1//EN"
 "http://www.w3.org/Graphics/SVG/1.1/DTD/svg11.dtd">
<!-- Generated by graphviz version 2.43.0 (0)
 -->
<!-- Title: MELD Emotion Recognition SlowFast Masked Pathways Pages: 1 -->
<svg width="804pt" height="3222pt"
 viewBox="0.00 0.00 804.00 3222.22" xmlns="http://www.w3.org/2000/svg" xmlns:xlink="http://www.w3.org/1999/xlink">
<g id="graph0" class="graph" transform="scale(1 1) rotate(0) translate(4 3218.22)">
<title>MELD Emotion Recognition SlowFast Masked Pathways</title>
<polygon fill="#2a2a2a" stroke="transparent" points="-4,4 -4,-3218.22 800,-3218.22 800,4 -4,4"/>
<text text-anchor="start" x="74" y="-3192.02" font-family="Arial" font-weight="bold" font-size="24.00" fill="#50e3c2">MELD Emotion Recognition SlowFast Masked Pathways</text>
<g id="clust1" class="cluster">
<title>cluster_init</title>
<polygon fill="#2a2a2a" stroke="white" stroke-width="0" points="554,-2733.14 554,-3172.22 746,-3172.22 746,-2733.14 554,-2733.14"/>
<text text-anchor="middle" x="650" y="-3158.62" font-family="Arial" font-size="12.00" fill="white">INITIALIZATION LAYER</text>
</g>
<g id="clust2" class="cluster">
<title>cluster_data</title>
<polygon fill="#2a2a2a" stroke="white" stroke-width="0" points="543,-2060.96 543,-2674.14 757,-2674.14 757,-2060.96 543,-2060.96"/>
<text text-anchor="middle" x="650" y="-2660.54" font-family="Arial" font-size="12.00" fill="white">DATA PROCESSING PIPELINE</text>
</g>
<g id="clust3" class="cluster">
<title>cluster_model</title>
<polygon fill="#2a2a2a" stroke="white" stroke-width="0" points="551,-1388.79 551,-2001.96 788,-2001.96 788,-1388.79 551,-1388.79"/>
<text text-anchor="middle" x="669.5" y="-1988.36" font-family="Arial" font-size="12.00" fill="white">MODEL ARCHITECTURE SUBSYSTEM</text>
</g>
<g id="clust4" class="cluster">
<title>cluster_training</title>
<polygon fill="#2a2a2a" stroke="white" stroke-width="0" points="546,-695.08 546,-1329.79 785,-1329.79 785,-695.08 546,-695.08"/>
<text text-anchor="middle" x="665.5" y="-1316.19" font-family="Arial" font-size="12.00" fill="white">TRAINING OPTIMIZATION SUBSYSTEM</text>
</g>
<g id="clust5" class="cluster">
<title>cluster_loop</title>
<polygon fill="#2a2a2a" stroke="white" stroke-width="0" points="149,-8 149,-636.08 403,-636.08 403,-8 149,-8"/>
<text text-anchor="middle" x="276" y="-622.48" font-family="Arial" font-size="12.00" fill="white">TRAINING EXECUTION ENGINE</text>
</g>
<g id="clust6" class="cluster">
<title>cluster_monitor</title>
<polygon fill="#2a2a2a" stroke="white" stroke-width="0" points="52,-695.08 52,-1152.47 312,-1152.47 312,-695.08 52,-695.08"/>
<text text-anchor="middle" x="182" y="-1138.87" font-family="Arial" font-size="12.00" fill="white">MONITORING &amp; EVALUATION SUBSYSTEM</text>
</g>
<g id="clust7" class="cluster">
<title>cluster_checkpoint</title>
<polygon fill="#2a2a2a" stroke="white" stroke-width="0" points="321,-696.1 321,-1160.25 536,-1160.25 536,-696.1 321,-696.1"/>
<text text-anchor="middle" x="428.5" y="-1146.65" font-family="Arial" font-size="12.00" fill="white">STORAGE &amp; DEPLOYMENT LAYER</text>
</g>
<!-- env_setup -->
<g id="node1" class="node">
<title>env_setup</title>
<ellipse fill="#4a90e2" stroke="#4a90e2" cx="650" cy="-3106.45" rx="87.86" ry="36.54"/>
<text text-anchor="middle" x="650" y="-3120.45" font-family="Arial" font-size="10.00">Environment Setup</text>
<text text-anchor="middle" x="650" y="-3109.45" font-family="Arial" font-size="10.00">• CUDA Memory Config</text>
<text text-anchor="middle" x="650" y="-3098.45" font-family="Arial" font-size="10.00">• Random Seeds</text>
<text text-anchor="middle" x="650" y="-3087.45" font-family="Arial" font-size="10.00">• API Tokens (HF, W&amp;B)</text>
</g>
<!-- config -->
<g id="node2" class="node">
<title>config</title>
<polygon fill="#50e3c2" stroke="#50e3c2" points="709,-2973.68 591,-2973.68 591,-2910.68 709,-2910.68 709,-2973.68"/>
<text text-anchor="middle" x="650" y="-2961.68" font-family="Arial" font-size="10.00">Configuration</text>
<text text-anchor="middle" x="650" y="-2950.68" font-family="Arial" font-size="10.00">• 32 frames, 224x224</text>
<text text-anchor="middle" x="650" y="-2939.68" font-family="Arial" font-size="10.00">• Batch size: 16</text>
<text text-anchor="middle" x="650" y="-2928.68" font-family="Arial" font-size="10.00">• Learning rates</text>
<text text-anchor="middle" x="650" y="-2917.68" font-family="Arial" font-size="10.00">• Augmentation params</text>
</g>
<!-- env_setup&#45;&gt;config -->
<g id="edge1" class="edge">
<title>env_setup&#45;&gt;config</title>
<path fill="none" stroke="white" d="M650,-3069.43C650,-3044.13 650,-3010.24 650,-2983.94"/>
<polygon fill="white" stroke="white" points="653.5,-2983.9 650,-2973.9 646.5,-2983.9 653.5,-2983.9"/>
<text text-anchor="middle" x="661.5" y="-3019.48" font-family="Arial" font-size="9.00" fill="#ffd700">setup</text>
</g>
<!-- api_tokens -->
<g id="node3" class="node">
<title>api_tokens</title>
<ellipse fill="#4a90e2" stroke="#4a90e2" cx="650" cy="-2777.91" rx="77.56" ry="36.54"/>
<text text-anchor="middle" x="650" y="-2791.91" font-family="Arial" font-size="10.00">API Authentication</text>
<text text-anchor="middle" x="650" y="-2780.91" font-family="Arial" font-size="10.00">• HuggingFace Token</text>
<text text-anchor="middle" x="650" y="-2769.91" font-family="Arial" font-size="10.00">• Weights &amp; Biases</text>
<text text-anchor="middle" x="650" y="-2758.91" font-family="Arial" font-size="10.00">• Model Hub Access</text>
</g>
<!-- config&#45;&gt;api_tokens -->
<g id="edge2" class="edge">
<title>config&#45;&gt;api_tokens</title>
<path fill="none" stroke="white" d="M650,-2910.66C650,-2886.56 650,-2852.55 650,-2825.11"/>
<polygon fill="white" stroke="white" points="653.5,-2824.96 650,-2814.96 646.5,-2824.96 653.5,-2824.96"/>
<text text-anchor="middle" x="669.5" y="-2860.48" font-family="Arial" font-size="9.00" fill="#ffd700">configure</text>
</g>
<!-- metadata -->
<g id="node4" class="node">
<title>metadata</title>
<ellipse fill="#7ed321" stroke="#7ed321" cx="650" cy="-2608.37" rx="98.99" ry="36.54"/>
<text text-anchor="middle" x="650" y="-2622.37" font-family="Arial" font-size="10.00">Metadata Loading</text>
<text text-anchor="middle" x="650" y="-2611.37" font-family="Arial" font-size="10.00">• extraction_checkpoint.json</text>
<text text-anchor="middle" x="650" y="-2600.37" font-family="Arial" font-size="10.00">• Train/Dev/Test splits</text>
<text text-anchor="middle" x="650" y="-2589.37" font-family="Arial" font-size="10.00">• Frame directories</text>
</g>
<!-- api_tokens&#45;&gt;metadata -->
<g id="edge3" class="edge">
<title>api_tokens&#45;&gt;metadata</title>
<path fill="none" stroke="white" d="M650,-2740.97C650,-2716.01 650,-2682.54 650,-2655.6"/>
<polygon fill="white" stroke="white" points="653.5,-2655.25 650,-2645.25 646.5,-2655.25 653.5,-2655.25"/>
<text text-anchor="middle" x="667" y="-2690.94" font-family="Arial" font-size="9.00" fill="#98fb98">initialize</text>
</g>
<!-- dataset -->
<g id="node5" class="node">
<title>dataset</title>
<polygon fill="#7ed321" stroke="#7ed321" points="728.5,-2475.6 571.5,-2475.6 571.5,-2423.6 728.5,-2423.6 728.5,-2475.6"/>
<text text-anchor="middle" x="650" y="-2463.6" font-family="Arial" font-size="10.00">MELDDataset Class</text>
<text text-anchor="middle" x="650" y="-2452.6" font-family="Arial" font-size="10.00">• Temporal sampling (32 frames)</text>
<text text-anchor="middle" x="650" y="-2441.6" font-family="Arial" font-size="10.00">• Mask handling</text>
<text text-anchor="middle" x="650" y="-2430.6" font-family="Arial" font-size="10.00">• Error logging</text>
</g>
<!-- metadata&#45;&gt;dataset -->
<g id="edge4" class="edge">
<title>metadata&#45;&gt;dataset</title>
<path fill="none" stroke="white" d="M650,-2571.4C650,-2545.77 650,-2511.49 650,-2485.99"/>
<polygon fill="white" stroke="white" points="653.5,-2485.65 650,-2475.65 646.5,-2485.65 653.5,-2485.65"/>
<text text-anchor="middle" x="671" y="-2521.4" font-family="Arial" font-size="9.00" fill="#98fb98">load splits</text>
</g>
<!-- transforms -->
<g id="node6" class="node">
<title>transforms</title>
<ellipse fill="#7ed321" stroke="#7ed321" cx="650" cy="-2283.05" rx="90.52" ry="44.6"/>
<text text-anchor="middle" x="650" y="-2302.55" font-family="Arial" font-size="10.00">Data Transforms</text>
<text text-anchor="middle" x="650" y="-2291.55" font-family="Arial" font-size="10.00">• Resize → RandomCrop</text>
<text text-anchor="middle" x="650" y="-2280.55" font-family="Arial" font-size="10.00">• Augmentations</text>
<text text-anchor="middle" x="650" y="-2269.55" font-family="Arial" font-size="10.00">• Normalization</text>
<text text-anchor="middle" x="650" y="-2258.55" font-family="Arial" font-size="10.00">• ToTensor</text>
</g>
<!-- dataset&#45;&gt;transforms -->
<g id="edge5" class="edge">
<title>dataset&#45;&gt;transforms</title>
<path fill="none" stroke="white" d="M650,-2423.25C650,-2400.61 650,-2366.68 650,-2338"/>
<polygon fill="white" stroke="white" points="653.5,-2337.69 650,-2327.69 646.5,-2337.69 653.5,-2337.69"/>
<text text-anchor="middle" x="676.5" y="-2373.4" font-family="Arial" font-size="9.00" fill="#98fb98">process data</text>
</g>
<!-- dataloader -->
<g id="node7" class="node">
<title>dataloader</title>
<ellipse fill="#7ed321" stroke="#7ed321" cx="650" cy="-2105.73" rx="98.08" ry="36.54"/>
<text text-anchor="middle" x="650" y="-2119.73" font-family="Arial" font-size="10.00">DataLoaders</text>
<text text-anchor="middle" x="650" y="-2108.73" font-family="Arial" font-size="10.00">• Train: shuffle=True</text>
<text text-anchor="middle" x="650" y="-2097.73" font-family="Arial" font-size="10.00">• Val/Test: batch processing</text>
<text text-anchor="middle" x="650" y="-2086.73" font-family="Arial" font-size="10.00">• Pin memory, 4 workers</text>
</g>
<!-- transforms&#45;&gt;dataloader -->
<g id="edge6" class="edge">
<title>transforms&#45;&gt;dataloader</title>
<path fill="none" stroke="white" d="M650,-2238.26C650,-2212.21 650,-2179.19 650,-2152.75"/>
<polygon fill="white" stroke="white" points="653.5,-2152.6 650,-2142.6 646.5,-2152.6 653.5,-2152.6"/>
<text text-anchor="middle" x="671.5" y="-2188.3" font-family="Arial" font-size="9.00" fill="#98fb98">batch data</text>
</g>
<!-- backbone -->
<g id="node8" class="node">
<title>backbone</title>
<ellipse fill="#9013fe" stroke="#9013fe" cx="650" cy="-1936.2" rx="88.28" ry="36.54"/>
<text text-anchor="middle" x="650" y="-1950.2" font-family="Arial" font-size="10.00">SlowFast R50 Backbone</text>
<text text-anchor="middle" x="650" y="-1939.2" font-family="Arial" font-size="10.00">• Pretrained weights</text>
<text text-anchor="middle" x="650" y="-1928.2" font-family="Arial" font-size="10.00">• Dual pathway design</text>
<text text-anchor="middle" x="650" y="-1917.2" font-family="Arial" font-size="10.00">• Feature extraction</text>
</g>
<!-- dataloader&#45;&gt;backbone -->
<g id="edge7" class="edge">
<title>dataloader&#45;&gt;backbone</title>
<path fill="none" stroke="white" d="M650,-2068.79C650,-2043.84 650,-2010.37 650,-1983.43"/>
<polygon fill="white" stroke="white" points="653.5,-1983.08 650,-1973.08 646.5,-1983.08 653.5,-1983.08"/>
<text text-anchor="middle" x="669.5" y="-2018.76" font-family="Arial" font-size="9.00" fill="#87ceeb">feed data</text>
</g>
<!-- pathways -->
<g id="node9" class="node">
<title>pathways</title>
<polygon fill="#9013fe" stroke="#9013fe" points="699,-1803.43 601,-1803.43 601,-1751.43 699,-1751.43 699,-1803.43"/>
<text text-anchor="middle" x="650" y="-1791.43" font-family="Arial" font-size="10.00">Dual Pathways</text>
<text text-anchor="middle" x="650" y="-1780.43" font-family="Arial" font-size="10.00">• Slow: T/4 frames</text>
<text text-anchor="middle" x="650" y="-1769.43" font-family="Arial" font-size="10.00">• Fast: T frames</text>
<text text-anchor="middle" x="650" y="-1758.43" font-family="Arial" font-size="10.00">• Masked inputs</text>
</g>
<!-- backbone&#45;&gt;pathways -->
<g id="edge8" class="edge">
<title>backbone&#45;&gt;pathways</title>
<path fill="none" stroke="white" d="M650,-1899.23C650,-1873.6 650,-1839.32 650,-1813.82"/>
<polygon fill="white" stroke="white" points="653.5,-1813.48 650,-1803.48 646.5,-1813.48 653.5,-1813.48"/>
<text text-anchor="middle" x="681.5" y="-1849.23" font-family="Arial" font-size="9.00" fill="#87ceeb">extract features</text>
</g>
<!-- masking -->
<g id="node11" class="node">
<title>masking</title>
<ellipse fill="#9013fe" stroke="#9013fe" cx="650" cy="-1618.66" rx="88.28" ry="36.54"/>
<text text-anchor="middle" x="650" y="-1632.66" font-family="Arial" font-size="10.00">Masking System</text>
<text text-anchor="middle" x="650" y="-1621.66" font-family="Arial" font-size="10.00">• Handle variable lengths</text>
<text text-anchor="middle" x="650" y="-1610.66" font-family="Arial" font-size="10.00">• Zero padding</text>
<text text-anchor="middle" x="650" y="-1599.66" font-family="Arial" font-size="10.00">• Temporal alignment</text>
</g>
<!-- pathways&#45;&gt;masking -->
<g id="edge9" class="edge">
<title>pathways&#45;&gt;masking</title>
<path fill="none" stroke="white" d="M650,-1751.24C650,-1728.29 650,-1693.83 650,-1665.92"/>
<polygon fill="white" stroke="white" points="653.5,-1665.59 650,-1655.59 646.5,-1665.59 653.5,-1665.59"/>
<text text-anchor="middle" x="676" y="-1701.23" font-family="Arial" font-size="9.00" fill="#87ceeb">apply masks</text>
</g>
<!-- classifier -->
<g id="node10" class="node">
<title>classifier</title>
<ellipse fill="#9013fe" stroke="#9013fe" cx="650" cy="-1441.34" rx="81.13" ry="44.6"/>
<text text-anchor="middle" x="650" y="-1460.84" font-family="Arial" font-size="10.00">Classification Head</text>
<text text-anchor="middle" x="650" y="-1449.84" font-family="Arial" font-size="10.00">• BatchNorm → Linear</text>
<text text-anchor="middle" x="650" y="-1438.84" font-family="Arial" font-size="10.00">• GELU activations</text>
<text text-anchor="middle" x="650" y="-1427.84" font-family="Arial" font-size="10.00">• Dropout layers</text>
<text text-anchor="middle" x="650" y="-1416.84" font-family="Arial" font-size="10.00">• 7 emotions</text>
</g>
<!-- loss -->
<g id="node12" class="node">
<title>loss</title>
<ellipse fill="#d0021b" stroke="#d0021b" cx="650" cy="-1264.02" rx="95.42" ry="36.54"/>
<text text-anchor="middle" x="650" y="-1278.02" font-family="Arial" font-size="10.00">Focal Loss</text>
<text text-anchor="middle" x="650" y="-1267.02" font-family="Arial" font-size="10.00">• Class imbalance handling</text>
<text text-anchor="middle" x="650" y="-1256.02" font-family="Arial" font-size="10.00">• Inverse sqrt weighting</text>
<text text-anchor="middle" x="650" y="-1245.02" font-family="Arial" font-size="10.00">• γ=2.0, α weights</text>
</g>
<!-- classifier&#45;&gt;loss -->
<g id="edge11" class="edge">
<title>classifier&#45;&gt;loss</title>
<path fill="none" stroke="white" d="M650,-1396.55C650,-1370.5 650,-1337.47 650,-1311.04"/>
<polygon fill="white" stroke="white" points="653.5,-1310.89 650,-1300.89 646.5,-1310.89 653.5,-1310.89"/>
<text text-anchor="middle" x="678" y="-1346.59" font-family="Arial" font-size="9.00" fill="#ffa07a">setup training</text>
</g>
<!-- masking&#45;&gt;classifier -->
<g id="edge10" class="edge">
<title>masking&#45;&gt;classifier</title>
<path fill="none" stroke="white" d="M650,-1581.75C650,-1557.15 650,-1524.07 650,-1496.3"/>
<polygon fill="white" stroke="white" points="653.5,-1495.95 650,-1485.95 646.5,-1495.95 653.5,-1495.95"/>
<text text-anchor="middle" x="665.5" y="-1531.69" font-family="Arial" font-size="9.00" fill="#87ceeb">classify</text>
</g>
<!-- optimizer -->
<g id="node13" class="node">
<title>optimizer</title>
<polygon fill="#d0021b" stroke="#d0021b" points="703.5,-1112.7 596.5,-1112.7 596.5,-1060.7 703.5,-1060.7 703.5,-1112.7"/>
<text text-anchor="middle" x="650" y="-1100.7" font-family="Arial" font-size="10.00">AdamW Optimizer</text>
<text text-anchor="middle" x="650" y="-1089.7" font-family="Arial" font-size="10.00">• Base LR: 1e&#45;5</text>
<text text-anchor="middle" x="650" y="-1078.7" font-family="Arial" font-size="10.00">• Weight decay: 1e&#45;4</text>
<text text-anchor="middle" x="650" y="-1067.7" font-family="Arial" font-size="10.00">• β=(0.9, 0.999)</text>
</g>
<!-- loss&#45;&gt;optimizer -->
<g id="edge12" class="edge">
<title>loss&#45;&gt;optimizer</title>
<path fill="none" stroke="white" d="M650,-1227.12C650,-1196.65 650,-1153.19 650,-1122.92"/>
<polygon fill="white" stroke="white" points="653.5,-1122.8 650,-1112.8 646.5,-1122.8 653.5,-1122.8"/>
<text text-anchor="middle" x="669.5" y="-1177.05" font-family="Arial" font-size="9.00" fill="#ffa07a">configure</text>
</g>
<!-- scheduler -->
<g id="node14" class="node">
<title>scheduler</title>
<ellipse fill="#d0021b" stroke="#d0021b" cx="650" cy="-909.39" rx="69.09" ry="36.54"/>
<text text-anchor="middle" x="650" y="-923.39" font-family="Arial" font-size="10.00">OneCycleLR</text>
<text text-anchor="middle" x="650" y="-912.39" font-family="Arial" font-size="10.00">• Max LR: 1e&#45;3</text>
<text text-anchor="middle" x="650" y="-901.39" font-family="Arial" font-size="10.00">• Cosine annealing</text>
<text text-anchor="middle" x="650" y="-890.39" font-family="Arial" font-size="10.00">• 30% warmup</text>
</g>
<!-- optimizer&#45;&gt;scheduler -->
<g id="edge13" class="edge">
<title>optimizer&#45;&gt;scheduler</title>
<path fill="none" stroke="white" d="M650,-1060.59C650,-1033.59 650,-990.08 650,-956.82"/>
<polygon fill="white" stroke="white" points="653.5,-956.41 650,-946.41 646.5,-956.41 653.5,-956.41"/>
<text text-anchor="middle" x="669" y="-991.96" font-family="Arial" font-size="9.00" fill="#ffa07a">schedule</text>
</g>
<!-- scaler -->
<g id="node15" class="node">
<title>scaler</title>
<ellipse fill="#d0021b" stroke="#d0021b" cx="642" cy="-739.85" rx="80.72" ry="36.54"/>
<text text-anchor="middle" x="642" y="-753.85" font-family="Arial" font-size="10.00">Mixed Precision</text>
<text text-anchor="middle" x="642" y="-742.85" font-family="Arial" font-size="10.00">• GradScaler</text>
<text text-anchor="middle" x="642" y="-731.85" font-family="Arial" font-size="10.00">• FP16 training</text>
<text text-anchor="middle" x="642" y="-720.85" font-family="Arial" font-size="10.00">• Memory optimization</text>
</g>
<!-- scheduler&#45;&gt;scaler -->
<g id="edge14" class="edge">
<title>scheduler&#45;&gt;scaler</title>
<path fill="none" stroke="white" d="M648.28,-872.45C647.09,-847.38 645.48,-813.72 644.19,-786.72"/>
<polygon fill="white" stroke="white" points="647.69,-786.55 643.71,-776.73 640.69,-786.89 647.69,-786.55"/>
<text text-anchor="middle" x="677" y="-822.42" font-family="Arial" font-size="9.00" fill="#ffa07a">scale precision</text>
</g>
<!-- forward -->
<g id="node16" class="node">
<title>forward</title>
<polygon fill="#7ed321" stroke="#7ed321" points="380.5,-607.08 273.5,-607.08 273.5,-555.08 380.5,-555.08 380.5,-607.08"/>
<text text-anchor="middle" x="327" y="-595.08" font-family="Arial" font-size="10.00">Forward Pass</text>
<text text-anchor="middle" x="327" y="-584.08" font-family="Arial" font-size="10.00">• Dual pathway input</text>
<text text-anchor="middle" x="327" y="-573.08" font-family="Arial" font-size="10.00">• Mask application</text>
<text text-anchor="middle" x="327" y="-562.08" font-family="Arial" font-size="10.00">• Feature extraction</text>
</g>
<!-- scaler&#45;&gt;forward -->
<g id="edge15" class="edge">
<title>scaler&#45;&gt;forward</title>
<path fill="none" stroke="white" d="M588.56,-712.25C532.5,-684.35 444.59,-640.6 386.39,-611.63"/>
<polygon fill="white" stroke="white" points="387.82,-608.44 377.31,-607.12 384.7,-614.7 387.82,-608.44"/>
<text text-anchor="middle" x="491.5" y="-652.88" font-family="Arial" font-size="9.00" fill="#dda0dd">execute</text>
</g>
<!-- backward -->
<g id="node17" class="node">
<title>backward</title>
<ellipse fill="#7ed321" stroke="#7ed321" cx="301" cy="-422.31" rx="85.62" ry="36.54"/>
<text text-anchor="middle" x="301" y="-436.31" font-family="Arial" font-size="10.00">Backward Pass</text>
<text text-anchor="middle" x="301" y="-425.31" font-family="Arial" font-size="10.00">• Gradient accumulation</text>
<text text-anchor="middle" x="301" y="-414.31" font-family="Arial" font-size="10.00">• Gradient clipping</text>
<text text-anchor="middle" x="301" y="-403.31" font-family="Arial" font-size="10.00">• NaN detection</text>
</g>
<!-- forward&#45;&gt;backward -->
<g id="edge16" class="edge">
<title>forward&#45;&gt;backward</title>
<path fill="none" stroke="white" d="M322.82,-554.89C319,-531.84 313.25,-497.17 308.61,-469.21"/>
<polygon fill="white" stroke="white" points="312.05,-468.54 306.96,-459.24 305.14,-469.68 312.05,-468.54"/>
<text text-anchor="middle" x="334.5" y="-504.88" font-family="Arial" font-size="9.00" fill="#dda0dd">backprop</text>
</g>
<!-- update -->
<g id="node18" class="node">
<title>update</title>
<ellipse fill="#7ed321" stroke="#7ed321" cx="296" cy="-252.77" rx="67.76" ry="36.54"/>
<text text-anchor="middle" x="296" y="-266.77" font-family="Arial" font-size="10.00">Parameter Update</text>
<text text-anchor="middle" x="296" y="-255.77" font-family="Arial" font-size="10.00">• Scaled gradients</text>
<text text-anchor="middle" x="296" y="-244.77" font-family="Arial" font-size="10.00">• Optimizer step</text>
<text text-anchor="middle" x="296" y="-233.77" font-family="Arial" font-size="10.00">• Scheduler step</text>
</g>
<!-- backward&#45;&gt;update -->
<g id="edge17" class="edge">
<title>backward&#45;&gt;update</title>
<path fill="none" stroke="white" d="M299.93,-385.37C299.18,-360.41 298.18,-326.94 297.38,-300"/>
<polygon fill="white" stroke="white" points="300.87,-299.54 297.07,-289.65 293.87,-299.75 300.87,-299.54"/>
<text text-anchor="middle" x="329" y="-335.34" font-family="Arial" font-size="9.00" fill="#dda0dd">update params</text>
</g>
<!-- unfreezing -->
<g id="node19" class="node">
<title>unfreezing</title>
<polygon fill="#7ed321" stroke="#7ed321" points="276,-120 157,-68 276,-16 395,-68 276,-120"/>
<text text-anchor="middle" x="276" y="-82" font-family="Arial" font-size="10.00">Progressive Unfreezing</text>
<text text-anchor="middle" x="276" y="-71" font-family="Arial" font-size="10.00">• Epoch 3: Stage 5</text>
<text text-anchor="middle" x="276" y="-60" font-family="Arial" font-size="10.00">• Epoch 6: Stage 4</text>
<text text-anchor="middle" x="276" y="-49" font-family="Arial" font-size="10.00">• Epoch 9: Stage 3</text>
</g>
<!-- update&#45;&gt;unfreezing -->
<g id="edge18" class="edge">
<title>update&#45;&gt;unfreezing</title>
<path fill="none" stroke="white" d="M292.05,-215.66C289.31,-190.63 285.6,-156.73 282.44,-127.83"/>
<polygon fill="white" stroke="white" points="285.91,-127.4 281.34,-117.84 278.95,-128.16 285.91,-127.4"/>
<text text-anchor="middle" x="312.5" y="-165.8" font-family="Arial" font-size="9.00" fill="#dda0dd">adapt layers</text>
</g>
<!-- metrics -->
<g id="node20" class="node">
<title>metrics</title>
<ellipse fill="#bd10e0" stroke="#bd10e0" cx="142" cy="-1086.7" rx="82.05" ry="36.54"/>
<text text-anchor="middle" x="142" y="-1100.7" font-family="Arial" font-size="10.00">Metrics Computation</text>
<text text-anchor="middle" x="142" y="-1089.7" font-family="Arial" font-size="10.00">• Accuracy, F1 scores</text>
<text text-anchor="middle" x="142" y="-1078.7" font-family="Arial" font-size="10.00">• Confusion matrices</text>
<text text-anchor="middle" x="142" y="-1067.7" font-family="Arial" font-size="10.00">• Classification reports</text>
</g>
<!-- unfreezing&#45;&gt;metrics -->
<g id="edge19" class="edge">
<title>unfreezing&#45;&gt;metrics</title>
<path fill="none" stroke="white" d="M229.49,-99.8C150.83,-151.89 0,-251.77 0,-251.77 0,-910.39 0,-910.39 0,-910.39 0,-910.39 66.1,-991.99 108.1,-1043.85"/>
<polygon fill="white" stroke="white" points="105.61,-1046.33 114.62,-1051.9 111.05,-1041.93 105.61,-1046.33"/>
<text text-anchor="middle" x="18" y="-578.88" font-family="Arial" font-size="9.00" fill="#90ee90">evaluate</text>
</g>
<!-- wandb -->
<g id="node21" class="node">
<title>wandb</title>
<polygon fill="#bd10e0" stroke="#bd10e0" points="195.5,-935.39 88.5,-935.39 88.5,-883.39 195.5,-883.39 195.5,-935.39"/>
<text text-anchor="middle" x="142" y="-923.39" font-family="Arial" font-size="10.00">Weights &amp; Biases</text>
<text text-anchor="middle" x="142" y="-912.39" font-family="Arial" font-size="10.00">• Real&#45;time logging</text>
<text text-anchor="middle" x="142" y="-901.39" font-family="Arial" font-size="10.00">• Gradient tracking</text>
<text text-anchor="middle" x="142" y="-890.39" font-family="Arial" font-size="10.00">• Sample predictions</text>
</g>
<!-- metrics&#45;&gt;wandb -->
<g id="edge20" class="edge">
<title>metrics&#45;&gt;wandb</title>
<path fill="none" stroke="white" d="M142,-1049.8C142,-1019.33 142,-975.87 142,-945.6"/>
<polygon fill="white" stroke="white" points="145.5,-945.49 142,-935.49 138.5,-945.49 145.5,-945.49"/>
<text text-anchor="middle" x="164.5" y="-991.96" font-family="Arial" font-size="9.00" fill="#90ee90">log metrics</text>
</g>
<!-- validation -->
<g id="node22" class="node">
<title>validation</title>
<ellipse fill="#bd10e0" stroke="#bd10e0" cx="226" cy="-739.85" rx="77.56" ry="36.54"/>
<text text-anchor="middle" x="226" y="-753.85" font-family="Arial" font-size="10.00">Validation Loop</text>
<text text-anchor="middle" x="226" y="-742.85" font-family="Arial" font-size="10.00">• Model evaluation</text>
<text text-anchor="middle" x="226" y="-731.85" font-family="Arial" font-size="10.00">• Early stopping</text>
<text text-anchor="middle" x="226" y="-720.85" font-family="Arial" font-size="10.00">• Best model tracking</text>
</g>
<!-- wandb&#45;&gt;validation -->
<g id="edge21" class="edge">
<title>wandb&#45;&gt;validation</title>
<path fill="none" stroke="white" d="M154.58,-883.3C167.61,-857.3 188.26,-816.13 204,-784.72"/>
<polygon fill="white" stroke="white" points="207.16,-786.24 208.51,-775.73 200.9,-783.1 207.16,-786.24"/>
<text text-anchor="middle" x="199.5" y="-822.42" font-family="Arial" font-size="9.00" fill="#90ee90">monitor</text>
</g>
<!-- validation&#45;&gt;forward -->
<g id="edge25" class="edge">
<title>validation&#45;&gt;forward</title>
<path fill="none" stroke="#ffff00" stroke-dasharray="5,2" d="M242.6,-703.76C254.34,-678.95 268,-650.08 268,-650.08 268,-650.08 283.23,-632.52 298.22,-615.25"/>
<polygon fill="#ffff00" stroke="#ffff00" points="301.12,-617.25 305.03,-607.4 295.83,-612.66 301.12,-617.25"/>
<text text-anchor="middle" x="302.5" y="-652.88" font-family="Arial" font-size="9.00" fill="#ffff00">continue training</text>
</g>
<!-- save -->
<g id="node23" class="node">
<title>save</title>
<ellipse fill="#f5a623" stroke="#f5a623" cx="430" cy="-1086.7" rx="71.34" ry="44.6"/>
<text text-anchor="middle" x="430" y="-1106.2" font-family="Arial" font-size="10.00">Checkpoint Saving</text>
<text text-anchor="middle" x="430" y="-1095.2" font-family="Arial" font-size="10.00">• Model state dict</text>
<text text-anchor="middle" x="430" y="-1084.2" font-family="Arial" font-size="10.00">• Optimizer state</text>
<text text-anchor="middle" x="430" y="-1073.2" font-family="Arial" font-size="10.00">• RNG states</text>
<text text-anchor="middle" x="430" y="-1062.2" font-family="Arial" font-size="10.00">• Training metadata</text>
</g>
<!-- validation&#45;&gt;save -->
<g id="edge22" class="edge">
<title>validation&#45;&gt;save</title>
<path fill="none" stroke="white" d="M245.51,-775.68C278.32,-834.25 341,-946.16 341,-946.16 341,-946.16 372.9,-996.17 398.5,-1036.31"/>
<polygon fill="white" stroke="white" points="395.69,-1038.42 404.02,-1044.97 401.59,-1034.65 395.69,-1038.42"/>
<text text-anchor="middle" x="363.5" y="-907.19" font-family="Arial" font-size="9.00" fill="#ffd700">checkpoint</text>
</g>
<!-- huggingface -->
<g id="node24" class="node">
<title>huggingface</title>
<polygon fill="#f5a623" stroke="#f5a623" points="523,-935.39 520,-939.39 499,-939.39 496,-935.39 415,-935.39 415,-883.39 523,-883.39 523,-935.39"/>
<text text-anchor="middle" x="469" y="-923.39" font-family="Arial" font-size="10.00">HuggingFace Hub</text>
<text text-anchor="middle" x="469" y="-912.39" font-family="Arial" font-size="10.00">• Model uploading</text>
<text text-anchor="middle" x="469" y="-901.39" font-family="Arial" font-size="10.00">• Version control</text>
<text text-anchor="middle" x="469" y="-890.39" font-family="Arial" font-size="10.00">• Best model storage</text>
</g>
<!-- save&#45;&gt;huggingface -->
<g id="edge23" class="edge">
<title>save&#45;&gt;huggingface</title>
<path fill="none" stroke="white" d="M439.64,-1042.37C446.26,-1012.61 454.94,-973.6 461.14,-945.72"/>
<polygon fill="white" stroke="white" points="464.63,-946.15 463.39,-935.62 457.8,-944.63 464.63,-946.15"/>
<text text-anchor="middle" x="478.5" y="-991.96" font-family="Arial" font-size="9.00" fill="#ffd700">upload model</text>
</g>
<!-- resume -->
<g id="node25" class="node">
<title>resume</title>
<path fill="#f5a623" stroke="#f5a623" d="M488,-768.89C488,-772.46 461.56,-775.35 429,-775.35 396.44,-775.35 370,-772.46 370,-768.89 370,-768.89 370,-710.8 370,-710.8 370,-707.24 396.44,-704.35 429,-704.35 461.56,-704.35 488,-707.24 488,-710.8 488,-710.8 488,-768.89 488,-768.89"/>
<path fill="none" stroke="#f5a623" d="M488,-768.89C488,-765.33 461.56,-762.44 429,-762.44 396.44,-762.44 370,-765.33 370,-768.89"/>
<text text-anchor="middle" x="429" y="-753.85" font-family="Arial" font-size="10.00">Resume Training</text>
<text text-anchor="middle" x="429" y="-742.85" font-family="Arial" font-size="10.00">• State restoration</text>
<text text-anchor="middle" x="429" y="-731.85" font-family="Arial" font-size="10.00">• RNG synchronization</text>
<text text-anchor="middle" x="429" y="-720.85" font-family="Arial" font-size="10.00">• Progress continuation</text>
</g>
<!-- huggingface&#45;&gt;resume -->
<g id="edge24" class="edge">
<title>huggingface&#45;&gt;resume</title>
<path fill="none" stroke="white" d="M463.01,-883.3C456.84,-857.44 447.08,-816.58 439.6,-785.23"/>
<polygon fill="white" stroke="white" points="442.98,-784.34 437.26,-775.42 436.17,-785.96 442.98,-784.34"/>
<text text-anchor="middle" x="479.5" y="-822.42" font-family="Arial" font-size="9.00" fill="#ffd700">version control</text>
</g>
<!-- resume&#45;&gt;forward -->
<g id="edge26" class="edge">
<title>resume&#45;&gt;forward</title>
<path fill="none" stroke="#00ffff" stroke-dasharray="5,2" d="M406.36,-704.06C389.28,-677.8 365.97,-641.97 349.03,-615.94"/>
<polygon fill="#00ffff" stroke="#00ffff" points="351.94,-613.99 343.55,-607.52 346.07,-617.81 351.94,-613.99"/>
<text text-anchor="middle" x="406" y="-652.88" font-family="Arial" font-size="9.00" fill="#00ffff">resume training</text>
</g>
</g>
</svg>
