<?xml version="1.0" encoding="UTF-8" standalone="no"?>
<!DOCTYPE svg PUBLIC "-//W3C//DTD SVG 1.1//EN"
 "http://www.w3.org/Graphics/SVG/1.1/DTD/svg11.dtd">
<!-- Generated by graphviz version 2.43.0 (0)
 -->
<!-- Title: MELD Video Frame Extraction Pages: 1 -->
<svg width="1636pt" height="778pt"
 viewBox="0.00 0.00 1636.00 777.87" xmlns="http://www.w3.org/2000/svg" xmlns:xlink="http://www.w3.org/1999/xlink">
<g id="graph0" class="graph" transform="scale(1 1) rotate(0) translate(4 773.87)">
<title>MELD Video Frame Extraction</title>
<polygon fill="#2a2a2a" stroke="transparent" points="-4,4 -4,-773.87 1632,-773.87 1632,4 -4,4"/>
<text text-anchor="start" x="641" y="-747.67" font-family="Arial" font-weight="bold" font-size="24.00" fill="#50e3c2">MELD Video Frame Extraction</text>
<g id="clust1" class="cluster">
<title>cluster_input</title>
<polygon fill="#2a2a2a" stroke="white" stroke-width="0" points="505,-648.44 505,-727.87 1083,-727.87 1083,-648.44 505,-648.44"/>
<text text-anchor="middle" x="794" y="-714.27" font-family="Arial" font-size="12.00" fill="white">INPUT LAYER</text>
</g>
<g id="clust2" class="cluster">
<title>cluster_config</title>
<polygon fill="#2a2a2a" stroke="white" stroke-width="0" points="624,-520.44 624,-620.44 754,-620.44 754,-520.44 624,-520.44"/>
<text text-anchor="middle" x="689" y="-606.84" font-family="Arial" font-size="12.00" fill="white">CONFIGURATION</text>
</g>
<g id="clust3" class="cluster">
<title>cluster_core</title>
<polygon fill="#2a2a2a" stroke="white" stroke-width="0" points="284,-314.23 284,-610.15 616,-610.15 616,-314.23 284,-314.23"/>
<text text-anchor="middle" x="450" y="-596.55" font-family="Arial" font-size="12.00" fill="white">CORE PROCESSING ENGINE</text>
</g>
<g id="clust4" class="cluster">
<title>cluster_speaker</title>
<polygon fill="#2a2a2a" stroke="white" stroke-width="0" points="937,-306.23 937,-610.15 1188,-610.15 1188,-306.23 937,-306.23"/>
<text text-anchor="middle" x="1062.5" y="-596.55" font-family="Arial" font-size="12.00" fill="white">SPEAKER IDENTIFICATION SUBSYSTEM</text>
</g>
<g id="clust5" class="cluster">
<title>cluster_face</title>
<polygon fill="#2a2a2a" stroke="white" stroke-width="0" points="1196,-311.73 1196,-610.15 1620,-610.15 1620,-311.73 1196,-311.73"/>
<text text-anchor="middle" x="1408" y="-596.55" font-family="Arial" font-size="12.00" fill="white">FACE PROCESSING SUBSYSTEM</text>
</g>
<g id="clust6" class="cluster">
<title>cluster_frame</title>
<polygon fill="#2a2a2a" stroke="white" stroke-width="0" points="530,-8 530,-271.25 822,-271.25 822,-8 530,-8"/>
<text text-anchor="middle" x="676" y="-257.65" font-family="Arial" font-size="12.00" fill="white">FRAME PROCESSING PIPELINE</text>
</g>
<g id="clust7" class="cluster">
<title>cluster_output</title>
<polygon fill="#2a2a2a" stroke="white" stroke-width="0" points="159,-97.14 159,-278.23 522,-278.23 522,-97.14 159,-97.14"/>
<text text-anchor="middle" x="340.5" y="-264.63" font-family="Arial" font-size="12.00" fill="white">STORAGE &amp; OUTPUT LAYER</text>
</g>
<g id="clust8" class="cluster">
<title>cluster_safety</title>
<polygon fill="#2a2a2a" stroke="white" stroke-width="0" points="8,-311.01 8,-492.44 276,-492.44 276,-311.01 8,-311.01"/>
<text text-anchor="middle" x="142" y="-478.84" font-family="Arial" font-size="12.00" fill="white">SAFETY &amp; RECOVERY SYSTEMS</text>
</g>
<!-- json_data -->
<g id="node1" class="node">
<title>json_data</title>
<ellipse fill="#4a90e2" stroke="#4a90e2" cx="752" cy="-677.65" rx="69.09" ry="21.43"/>
<text text-anchor="middle" x="752" y="-680.65" font-family="Arial" font-size="10.00">MELD JSON Data</text>
<text text-anchor="middle" x="752" y="-669.65" font-family="Arial" font-size="10.00">(train/dev/test)</text>
</g>
<!-- process_dataset -->
<g id="node6" class="node">
<title>process_dataset</title>
<polygon fill="#d0021b" stroke="#d0021b" points="518,-472.23 428,-442.23 518,-412.23 608,-442.23 518,-472.23"/>
<text text-anchor="middle" x="518" y="-445.23" font-family="Arial" font-size="10.00">Process Dataset</text>
<text text-anchor="middle" x="518" y="-434.23" font-family="Arial" font-size="10.00">Orchestrator</text>
</g>
<!-- json_data&#45;&gt;process_dataset -->
<g id="edge1" class="edge">
<title>json_data&#45;&gt;process_dataset</title>
<path fill="none" stroke="white" d="M760.04,-656.37C771.36,-624.19 787.49,-560.91 758,-520.44 723.79,-473.5 660.56,-454.48 607.59,-447.04"/>
<polygon fill="white" stroke="white" points="607.85,-443.55 597.49,-445.74 606.96,-450.49 607.85,-443.55"/>
<text text-anchor="middle" x="801" y="-557.74" font-family="Arial" font-size="9.00" fill="#ffd700">dataset splits</text>
</g>
<!-- video_files -->
<g id="node2" class="node">
<title>video_files</title>
<ellipse fill="#4a90e2" stroke="#4a90e2" cx="885" cy="-677.65" rx="45.92" ry="21.43"/>
<text text-anchor="middle" x="885" y="-680.65" font-family="Arial" font-size="10.00">Video Files</text>
<text text-anchor="middle" x="885" y="-669.65" font-family="Arial" font-size="10.00">(.mp4)</text>
</g>
<!-- process_video -->
<g id="node9" class="node">
<title>process_video</title>
<polygon fill="#7ed321" stroke="#7ed321" points="608,-358.23 528,-358.23 528,-322.23 608,-322.23 608,-358.23"/>
<text text-anchor="middle" x="568" y="-343.23" font-family="Arial" font-size="10.00">Process Video</text>
<text text-anchor="middle" x="568" y="-332.23" font-family="Arial" font-size="10.00">Pipeline</text>
</g>
<!-- video_files&#45;&gt;process_video -->
<g id="edge7" class="edge">
<title>video_files&#45;&gt;process_video</title>
<path fill="none" stroke="white" d="M882.32,-656.22C877.26,-624.39 863.84,-562.25 832,-520.44 774.66,-445.14 676.26,-390.52 617.15,-362.52"/>
<polygon fill="white" stroke="white" points="618.56,-359.32 608.02,-358.26 615.6,-365.66 618.56,-359.32"/>
<text text-anchor="middle" x="844.5" y="-503.24" font-family="Arial" font-size="9.00" fill="#98fb98">video path</text>
</g>
<!-- prev_checkpoint -->
<g id="node3" class="node">
<title>prev_checkpoint</title>
<ellipse fill="#4a90e2" stroke="#4a90e2" cx="589" cy="-677.65" rx="75.82" ry="21.43"/>
<text text-anchor="middle" x="589" y="-680.65" font-family="Arial" font-size="10.00">Previous Checkpoint</text>
<text text-anchor="middle" x="589" y="-669.65" font-family="Arial" font-size="10.00">(Optional)</text>
</g>
<!-- checkpoint_mgr -->
<g id="node7" class="node">
<title>checkpoint_mgr</title>
<ellipse fill="#f5a623" stroke="#f5a623" cx="537" cy="-559.94" rx="70.92" ry="21.43"/>
<text text-anchor="middle" x="537" y="-562.94" font-family="Arial" font-size="10.00">Atomic Checkpoint</text>
<text text-anchor="middle" x="537" y="-551.94" font-family="Arial" font-size="10.00">Manager</text>
</g>
<!-- prev_checkpoint&#45;&gt;checkpoint_mgr -->
<g id="edge3" class="edge">
<title>prev_checkpoint&#45;&gt;checkpoint_mgr</title>
<path fill="none" stroke="white" d="M579.94,-656.5C571.75,-638.28 559.59,-611.21 550.3,-590.54"/>
<polygon fill="white" stroke="white" points="553.42,-588.94 546.13,-581.25 547.03,-591.81 553.42,-588.94"/>
<text text-anchor="middle" x="596.5" y="-631.24" font-family="Arial" font-size="9.00" fill="#ffd700">resume state</text>
</g>
<!-- dlib_models -->
<g id="node4" class="node">
<title>dlib_models</title>
<ellipse fill="#4a90e2" stroke="#4a90e2" cx="1012" cy="-677.65" rx="62.87" ry="21.43"/>
<text text-anchor="middle" x="1012" y="-680.65" font-family="Arial" font-size="10.00">DLib Models</text>
<text text-anchor="middle" x="1012" y="-669.65" font-family="Arial" font-size="10.00">(Face Detection)</text>
</g>
<!-- identify_speaker -->
<g id="node10" class="node">
<title>identify_speaker</title>
<ellipse fill="#bd10e0" stroke="#bd10e0" cx="1033" cy="-559.94" rx="51.74" ry="21.43"/>
<text text-anchor="middle" x="1033" y="-562.94" font-family="Arial" font-size="10.00">Identify Main</text>
<text text-anchor="middle" x="1033" y="-551.94" font-family="Arial" font-size="10.00">Speaker</text>
</g>
<!-- dlib_models&#45;&gt;identify_speaker -->
<g id="edge9" class="edge">
<title>dlib_models&#45;&gt;identify_speaker</title>
<path fill="none" stroke="white" d="M1015.71,-656.23C1018.97,-638.22 1023.78,-611.73 1027.5,-591.24"/>
<polygon fill="white" stroke="white" points="1030.99,-591.62 1029.33,-581.16 1024.1,-590.37 1030.99,-591.62"/>
<text text-anchor="middle" x="1035.5" y="-631.24" font-family="Arial" font-size="9.00" fill="#98fb98">models</text>
</g>
<!-- config -->
<g id="node5" class="node">
<title>config</title>
<polygon fill="#50e3c2" stroke="#50e3c2" points="746,-591.44 632,-591.44 632,-528.44 746,-528.44 746,-591.44"/>
<text text-anchor="middle" x="689" y="-579.44" font-family="Arial" font-size="10.00">Config Class</text>
<text text-anchor="middle" x="689" y="-568.44" font-family="Arial" font-size="10.00">• num_frames: 32</text>
<text text-anchor="middle" x="689" y="-557.44" font-family="Arial" font-size="10.00">• crop_size: 224x224</text>
<text text-anchor="middle" x="689" y="-546.44" font-family="Arial" font-size="10.00">• face_confidence: 0.6</text>
<text text-anchor="middle" x="689" y="-535.44" font-family="Arial" font-size="10.00">• tracking_params</text>
</g>
<!-- config&#45;&gt;process_dataset -->
<g id="edge2" class="edge">
<title>config&#45;&gt;process_dataset</title>
<path fill="none" stroke="white" d="M643.62,-528.24C616.07,-509.59 581.32,-486.07 555.35,-468.5"/>
<polygon fill="white" stroke="white" points="557.15,-465.5 546.91,-462.79 553.23,-471.29 557.15,-465.5"/>
<text text-anchor="middle" x="636.5" y="-503.24" font-family="Arial" font-size="9.00" fill="#ffd700">parameters</text>
</g>
<!-- process_dataset&#45;&gt;process_video -->
<g id="edge6" class="edge">
<title>process_dataset&#45;&gt;process_video</title>
<path fill="none" stroke="white" d="M530.49,-416.25C537.89,-401.45 547.27,-382.7 554.79,-367.64"/>
<polygon fill="white" stroke="white" points="558.09,-368.87 559.43,-358.37 551.83,-365.74 558.09,-368.87"/>
<text text-anchor="middle" x="574" y="-387.03" font-family="Arial" font-size="9.00" fill="#98fb98">for each video</text>
</g>
<!-- checkpoint_data -->
<g id="node24" class="node">
<title>checkpoint_data</title>
<path fill="#f5a623" stroke="#f5a623" d="M396.5,-244.26C396.5,-247.1 373.87,-249.42 346,-249.42 318.13,-249.42 295.5,-247.1 295.5,-244.26 295.5,-244.26 295.5,-197.82 295.5,-197.82 295.5,-194.98 318.13,-192.66 346,-192.66 373.87,-192.66 396.5,-194.98 396.5,-197.82 396.5,-197.82 396.5,-244.26 396.5,-244.26"/>
<path fill="none" stroke="#f5a623" d="M396.5,-244.26C396.5,-241.41 373.87,-239.1 346,-239.1 318.13,-239.1 295.5,-241.41 295.5,-244.26"/>
<text text-anchor="middle" x="346" y="-229.54" font-family="Arial" font-size="10.00">Checkpoint Data</text>
<text text-anchor="middle" x="346" y="-218.54" font-family="Arial" font-size="10.00">• Processed videos</text>
<text text-anchor="middle" x="346" y="-207.54" font-family="Arial" font-size="10.00">• Progress state</text>
</g>
<!-- process_dataset&#45;&gt;checkpoint_data -->
<g id="edge25" class="edge">
<title>process_dataset&#45;&gt;checkpoint_data</title>
<path fill="none" stroke="white" d="M499.98,-418.14C488.61,-403.43 473.72,-383.87 461,-366.23 442.11,-340.03 439.81,-331.74 420,-306.23 406.99,-289.47 391.64,-271.73 378.31,-256.87"/>
<polygon fill="white" stroke="white" points="380.84,-254.45 371.54,-249.38 375.65,-259.14 380.84,-254.45"/>
<text text-anchor="middle" x="490" y="-338.03" font-family="Arial" font-size="9.00" fill="#dda0dd">progress state</text>
</g>
<!-- checkpoint_mgr&#45;&gt;process_dataset -->
<g id="edge4" class="edge">
<title>checkpoint_mgr&#45;&gt;process_dataset</title>
<path fill="none" stroke="white" d="M533.65,-538.52C531.03,-522.57 527.32,-499.97 524.17,-480.78"/>
<polygon fill="white" stroke="white" points="527.61,-480.13 522.53,-470.83 520.7,-481.26 527.61,-480.13"/>
<text text-anchor="middle" x="548" y="-503.24" font-family="Arial" font-size="9.00" fill="#ffd700">load/save</text>
</g>
<!-- graceful_term -->
<g id="node8" class="node">
<title>graceful_term</title>
<ellipse fill="#d0021b" stroke="#d0021b" cx="370" cy="-559.94" rx="78.48" ry="21.43"/>
<text text-anchor="middle" x="370" y="-562.94" font-family="Arial" font-size="10.00">Graceful Terminator</text>
<text text-anchor="middle" x="370" y="-551.94" font-family="Arial" font-size="10.00">(Time/Signal Handler)</text>
</g>
<!-- graceful_term&#45;&gt;process_dataset -->
<g id="edge5" class="edge">
<title>graceful_term&#45;&gt;process_dataset</title>
<path fill="none" stroke="white" d="M394.77,-539.57C419.16,-520.51 456.6,-491.24 483.81,-469.96"/>
<polygon fill="white" stroke="white" points="486.18,-472.55 491.9,-463.63 481.87,-467.04 486.18,-472.55"/>
<text text-anchor="middle" x="464.5" y="-503.24" font-family="Arial" font-size="9.00" fill="#ffd700">time limits</text>
</g>
<!-- session_handler -->
<g id="node26" class="node">
<title>session_handler</title>
<ellipse fill="#d0021b" stroke="#d0021b" cx="217" cy="-442.23" rx="50.82" ry="21.43"/>
<text text-anchor="middle" x="217" y="-445.23" font-family="Arial" font-size="10.00">Session End</text>
<text text-anchor="middle" x="217" y="-434.23" font-family="Arial" font-size="10.00">Handler</text>
</g>
<!-- graceful_term&#45;&gt;session_handler -->
<g id="edge29" class="edge">
<title>graceful_term&#45;&gt;session_handler</title>
<path fill="none" stroke="white" d="M343.87,-539.92C325.83,-526.72 301.35,-508.66 280,-492.44 269.45,-484.42 258,-475.54 247.8,-467.55"/>
<polygon fill="white" stroke="white" points="249.95,-464.79 239.93,-461.37 245.63,-470.3 249.95,-464.79"/>
<text text-anchor="middle" x="325.5" y="-503.24" font-family="Arial" font-size="9.00" fill="#ffa07a">time/signal</text>
</g>
<!-- process_video&#45;&gt;identify_speaker -->
<g id="edge8" class="edge">
<title>process_video&#45;&gt;identify_speaker</title>
<path fill="none" stroke="white" d="M608.07,-342.6C677.25,-345.73 815.3,-355.48 853,-384.23 894.84,-416.13 864.72,-454.33 901,-492.44 923.4,-515.97 955.91,-532.48 983.07,-543.17"/>
<polygon fill="white" stroke="white" points="981.84,-546.45 992.43,-546.71 984.31,-539.9 981.84,-546.45"/>
<text text-anchor="middle" x="936" y="-440.03" font-family="Arial" font-size="9.00" fill="#98fb98">speaker analysis</text>
</g>
<!-- frame_extraction -->
<g id="node17" class="node">
<title>frame_extraction</title>
<ellipse fill="#7ed321" stroke="#7ed321" cx="603" cy="-221.04" rx="65.11" ry="21.43"/>
<text text-anchor="middle" x="603" y="-224.04" font-family="Arial" font-size="10.00">Frame Extraction</text>
<text text-anchor="middle" x="603" y="-213.04" font-family="Arial" font-size="10.00">from Video</text>
</g>
<!-- process_video&#45;&gt;frame_extraction -->
<g id="edge18" class="edge">
<title>process_video&#45;&gt;frame_extraction</title>
<path fill="none" stroke="white" d="M573.09,-322.19C578.58,-303.8 587.43,-274.17 594.08,-251.9"/>
<polygon fill="white" stroke="white" points="597.46,-252.83 596.96,-242.25 590.75,-250.83 597.46,-252.83"/>
<text text-anchor="middle" x="612" y="-289.03" font-family="Arial" font-size="9.00" fill="#90ee90">extract frames</text>
</g>
<!-- metadata_json -->
<g id="node23" class="node">
<title>metadata_json</title>
<polygon fill="#9013fe" stroke="#9013fe" points="507.5,-247.04 414.5,-247.04 414.5,-195.04 513.5,-195.04 513.5,-241.04 507.5,-247.04"/>
<polyline fill="none" stroke="#9013fe" points="507.5,-247.04 507.5,-241.04 "/>
<polyline fill="none" stroke="#9013fe" points="513.5,-241.04 507.5,-241.04 "/>
<text text-anchor="middle" x="464" y="-235.04" font-family="Arial" font-size="10.00">Metadata JSON</text>
<text text-anchor="middle" x="464" y="-224.04" font-family="Arial" font-size="10.00">• Frame directories</text>
<text text-anchor="middle" x="464" y="-213.04" font-family="Arial" font-size="10.00">• Mask info</text>
<text text-anchor="middle" x="464" y="-202.04" font-family="Arial" font-size="10.00">• Labels</text>
</g>
<!-- process_video&#45;&gt;metadata_json -->
<g id="edge24" class="edge">
<title>process_video&#45;&gt;metadata_json</title>
<path fill="none" stroke="white" d="M542.73,-322.17C532.85,-314.83 521.8,-305.76 513,-296.23 501.86,-284.16 491.51,-269.3 483.22,-256.06"/>
<polygon fill="white" stroke="white" points="486.02,-253.92 477.83,-247.2 480.04,-257.56 486.02,-253.92"/>
<text text-anchor="middle" x="545" y="-289.03" font-family="Arial" font-size="9.00" fill="#dda0dd">frame metadata</text>
</g>
<!-- speaker_tracker -->
<g id="node11" class="node">
<title>speaker_tracker</title>
<polygon fill="#bd10e0" stroke="#bd10e0" points="1086.5,-468.23 979.5,-468.23 979.5,-416.23 1086.5,-416.23 1086.5,-468.23"/>
<text text-anchor="middle" x="1033" y="-456.23" font-family="Arial" font-size="10.00">Speaker Tracker</text>
<text text-anchor="middle" x="1033" y="-445.23" font-family="Arial" font-size="10.00">• Face encoding</text>
<text text-anchor="middle" x="1033" y="-434.23" font-family="Arial" font-size="10.00">• Focus tracking</text>
<text text-anchor="middle" x="1033" y="-423.23" font-family="Arial" font-size="10.00">• Confidence scoring</text>
</g>
<!-- identify_speaker&#45;&gt;speaker_tracker -->
<g id="edge10" class="edge">
<title>identify_speaker&#45;&gt;speaker_tracker</title>
<path fill="none" stroke="white" d="M1033,-538.52C1033,-521.91 1033,-498.09 1033,-478.42"/>
<polygon fill="white" stroke="white" points="1036.5,-478.28 1033,-468.28 1029.5,-478.28 1036.5,-478.28"/>
<text text-anchor="middle" x="1049.5" y="-503.24" font-family="Arial" font-size="9.00" fill="#ff69b4">tracking</text>
</g>
<!-- mouth_analyzer -->
<g id="node12" class="node">
<title>mouth_analyzer</title>
<polygon fill="#bd10e0" stroke="#bd10e0" points="1176.5,-366.23 1069.5,-366.23 1069.5,-314.23 1176.5,-314.23 1176.5,-366.23"/>
<text text-anchor="middle" x="1123" y="-354.23" font-family="Arial" font-size="10.00">Mouth Analyzer</text>
<text text-anchor="middle" x="1123" y="-343.23" font-family="Arial" font-size="10.00">• MAR calculation</text>
<text text-anchor="middle" x="1123" y="-332.23" font-family="Arial" font-size="10.00">• Rhythm analysis</text>
<text text-anchor="middle" x="1123" y="-321.23" font-family="Arial" font-size="10.00">• Speaking detection</text>
</g>
<!-- identify_speaker&#45;&gt;mouth_analyzer -->
<g id="edge11" class="edge">
<title>identify_speaker&#45;&gt;mouth_analyzer</title>
<path fill="none" stroke="white" d="M1055.77,-540.57C1069.44,-528.33 1086.06,-511.11 1096,-492.44 1115.37,-456.07 1121.19,-408.51 1122.77,-376.52"/>
<polygon fill="white" stroke="white" points="1126.27,-376.43 1123.15,-366.31 1119.28,-376.17 1126.27,-376.43"/>
<text text-anchor="middle" x="1147.5" y="-440.03" font-family="Arial" font-size="9.00" fill="#ff69b4">MAR analysis</text>
</g>
<!-- face_detection -->
<g id="node13" class="node">
<title>face_detection</title>
<ellipse fill="#7ed321" stroke="#7ed321" cx="1382" cy="-559.94" rx="61.54" ry="21.43"/>
<text text-anchor="middle" x="1382" y="-562.94" font-family="Arial" font-size="10.00">DLib CNN Face</text>
<text text-anchor="middle" x="1382" y="-551.94" font-family="Arial" font-size="10.00">Detection</text>
</g>
<!-- identify_speaker&#45;&gt;face_detection -->
<g id="edge13" class="edge">
<title>identify_speaker&#45;&gt;face_detection</title>
<path fill="none" stroke="white" d="M1084.87,-559.94C1144.65,-559.94 1243.27,-559.94 1310.35,-559.94"/>
<polygon fill="white" stroke="white" points="1310.42,-563.44 1320.42,-559.94 1310.42,-556.44 1310.42,-563.44"/>
<text text-anchor="middle" x="1202.55" y="-565.74" font-family="Arial" font-size="9.00" fill="#87ceeb">detect faces</text>
</g>
<!-- speaker_tracker&#45;&gt;mouth_analyzer -->
<g id="edge12" class="edge">
<title>speaker_tracker&#45;&gt;mouth_analyzer</title>
<path fill="none" stroke="white" d="M1052.85,-416.1C1061.05,-406.01 1070.77,-394.39 1080,-384.23 1083.2,-380.7 1086.61,-377.08 1090.06,-373.51"/>
<polygon fill="white" stroke="white" points="1092.63,-375.89 1097.12,-366.3 1087.62,-371 1092.63,-375.89"/>
<text text-anchor="middle" x="1099" y="-387.03" font-family="Arial" font-size="9.00" fill="#ff69b4">face data</text>
</g>
<!-- face_recognition -->
<g id="node14" class="node">
<title>face_recognition</title>
<ellipse fill="#7ed321" stroke="#7ed321" cx="1444" cy="-442.23" rx="70.92" ry="21.43"/>
<text text-anchor="middle" x="1444" y="-445.23" font-family="Arial" font-size="10.00">Face Recognition</text>
<text text-anchor="middle" x="1444" y="-434.23" font-family="Arial" font-size="10.00">Encoding/Matching</text>
</g>
<!-- face_detection&#45;&gt;face_recognition -->
<g id="edge14" class="edge">
<title>face_detection&#45;&gt;face_recognition</title>
<path fill="none" stroke="white" d="M1392.8,-538.79C1402.61,-520.48 1417.19,-493.26 1428.29,-472.54"/>
<polygon fill="white" stroke="white" points="1431.48,-474.01 1433.12,-463.54 1425.31,-470.7 1431.48,-474.01"/>
<text text-anchor="middle" x="1435.5" y="-503.24" font-family="Arial" font-size="9.00" fill="#87ceeb">face boxes</text>
</g>
<!-- landmark_detection -->
<g id="node16" class="node">
<title>landmark_detection</title>
<ellipse fill="#7ed321" stroke="#7ed321" cx="1280" cy="-442.23" rx="75.82" ry="21.43"/>
<text text-anchor="middle" x="1280" y="-445.23" font-family="Arial" font-size="10.00">Facial Landmark</text>
<text text-anchor="middle" x="1280" y="-434.23" font-family="Arial" font-size="10.00">Detection (68 points)</text>
</g>
<!-- face_detection&#45;&gt;landmark_detection -->
<g id="edge16" class="edge">
<title>face_detection&#45;&gt;landmark_detection</title>
<path fill="none" stroke="white" d="M1364.7,-539.31C1348.07,-520.44 1322.78,-491.76 1304.16,-470.64"/>
<polygon fill="white" stroke="white" points="1306.63,-468.14 1297.39,-462.95 1301.37,-472.77 1306.63,-468.14"/>
<text text-anchor="middle" x="1362.5" y="-503.24" font-family="Arial" font-size="9.00" fill="#87ceeb">face regions</text>
</g>
<!-- face_tracking -->
<g id="node15" class="node">
<title>face_tracking</title>
<polygon fill="#7ed321" stroke="#7ed321" points="1499,-360.73 1389,-360.73 1389,-319.73 1499,-319.73 1499,-360.73"/>
<text text-anchor="middle" x="1444" y="-348.73" font-family="Arial" font-size="10.00">Correlation Tracker</text>
<text text-anchor="middle" x="1444" y="-337.73" font-family="Arial" font-size="10.00">• Quality assessment</text>
<text text-anchor="middle" x="1444" y="-326.73" font-family="Arial" font-size="10.00">• Failure recovery</text>
</g>
<!-- face_recognition&#45;&gt;face_tracking -->
<g id="edge15" class="edge">
<title>face_recognition&#45;&gt;face_tracking</title>
<path fill="none" stroke="white" d="M1444,-420.99C1444,-406.57 1444,-386.96 1444,-370.79"/>
<polygon fill="white" stroke="white" points="1447.5,-370.75 1444,-360.75 1440.5,-370.75 1447.5,-370.75"/>
<text text-anchor="middle" x="1465.5" y="-387.03" font-family="Arial" font-size="9.00" fill="#87ceeb">encodings</text>
</g>
<!-- face_tracking&#45;&gt;face_detection -->
<g id="edge30" class="edge">
<title>face_tracking&#45;&gt;face_detection</title>
<path fill="none" stroke="#ffff00" stroke-dasharray="5,2" d="M1477.1,-360.76C1494.57,-373.08 1514.33,-390.72 1524,-412.23 1538.62,-444.74 1543.13,-462.36 1524,-492.44 1506.48,-519.99 1474.21,-536.32 1444.85,-545.9"/>
<polygon fill="#ffff00" stroke="#ffff00" points="1443.57,-542.63 1435.03,-548.9 1445.62,-549.33 1443.57,-542.63"/>
<text text-anchor="middle" x="1566.5" y="-440.03" font-family="Arial" font-size="9.00" fill="#ffff00">tracking failure</text>
</g>
<!-- bbox_expansion -->
<g id="node18" class="node">
<title>bbox_expansion</title>
<ellipse fill="#7ed321" stroke="#7ed321" cx="750" cy="-221.04" rx="63.78" ry="21.43"/>
<text text-anchor="middle" x="750" y="-224.04" font-family="Arial" font-size="10.00">Bounding Box</text>
<text text-anchor="middle" x="750" y="-213.04" font-family="Arial" font-size="10.00">Expansion (0.7x)</text>
</g>
<!-- face_tracking&#45;&gt;bbox_expansion -->
<g id="edge19" class="edge">
<title>face_tracking&#45;&gt;bbox_expansion</title>
<path fill="none" stroke="white" d="M1388.96,-329.93C1262.45,-308.57 951.38,-256.04 815.4,-233.08"/>
<polygon fill="white" stroke="white" points="815.97,-229.63 805.52,-231.42 814.8,-236.53 815.97,-229.63"/>
<text text-anchor="middle" x="1199" y="-289.03" font-family="Arial" font-size="9.00" fill="#90ee90">face bbox</text>
</g>
<!-- landmark_detection&#45;&gt;mouth_analyzer -->
<g id="edge17" class="edge">
<title>landmark_detection&#45;&gt;mouth_analyzer</title>
<path fill="none" stroke="white" d="M1250.84,-422.65C1228.45,-408.39 1197.06,-388.4 1170.99,-371.79"/>
<polygon fill="white" stroke="white" points="1172.68,-368.72 1162.37,-366.3 1168.92,-374.63 1172.68,-368.72"/>
<text text-anchor="middle" x="1232.5" y="-387.03" font-family="Arial" font-size="9.00" fill="#87ceeb">mouth points</text>
</g>
<!-- crop_resize -->
<g id="node19" class="node">
<title>crop_resize</title>
<ellipse fill="#7ed321" stroke="#7ed321" cx="726" cy="-125.64" rx="57.05" ry="21.43"/>
<text text-anchor="middle" x="726" y="-128.64" font-family="Arial" font-size="10.00">Crop &amp; Resize</text>
<text text-anchor="middle" x="726" y="-117.64" font-family="Arial" font-size="10.00">to 224x224</text>
</g>
<!-- bbox_expansion&#45;&gt;crop_resize -->
<g id="edge20" class="edge">
<title>bbox_expansion&#45;&gt;crop_resize</title>
<path fill="none" stroke="white" d="M744.79,-199.77C741.55,-187.17 737.33,-170.73 733.71,-156.63"/>
<polygon fill="white" stroke="white" points="737.08,-155.68 731.2,-146.87 730.3,-157.42 737.08,-155.68"/>
<text text-anchor="middle" x="773" y="-167.65" font-family="Arial" font-size="9.00" fill="#90ee90">expanded region</text>
</g>
<!-- frame_validation -->
<g id="node20" class="node">
<title>frame_validation</title>
<ellipse fill="#7ed321" stroke="#7ed321" cx="637" cy="-37.21" rx="62.87" ry="21.43"/>
<text text-anchor="middle" x="637" y="-40.21" font-family="Arial" font-size="10.00">Frame Validation</text>
<text text-anchor="middle" x="637" y="-29.21" font-family="Arial" font-size="10.00">&amp; Quality Check</text>
</g>
<!-- crop_resize&#45;&gt;frame_validation -->
<g id="edge21" class="edge">
<title>crop_resize&#45;&gt;frame_validation</title>
<path fill="none" stroke="white" d="M706.25,-105.46C693.89,-93.46 677.8,-77.83 664.24,-64.66"/>
<polygon fill="white" stroke="white" points="666.62,-62.09 657,-57.64 661.74,-67.12 666.62,-62.09"/>
<text text-anchor="middle" x="718.5" y="-79.23" font-family="Arial" font-size="9.00" fill="#90ee90">processed frame</text>
</g>
<!-- atomic_saver -->
<g id="node21" class="node">
<title>atomic_saver</title>
<ellipse fill="#f5a623" stroke="#f5a623" cx="222" cy="-221.04" rx="55.31" ry="21.43"/>
<text text-anchor="middle" x="222" y="-224.04" font-family="Arial" font-size="10.00">Atomic Frame</text>
<text text-anchor="middle" x="222" y="-213.04" font-family="Arial" font-size="10.00">Saver</text>
</g>
<!-- frame_validation&#45;&gt;atomic_saver -->
<g id="edge22" class="edge">
<title>frame_validation&#45;&gt;atomic_saver</title>
<path fill="none" stroke="white" d="M573.9,-38.13C471.58,-39.45 276.33,-48.47 231,-97.14 208.24,-121.57 209.89,-161.89 214.64,-189.64"/>
<polygon fill="white" stroke="white" points="211.23,-190.46 216.57,-199.61 218.1,-189.12 211.23,-190.46"/>
<text text-anchor="middle" x="256" y="-123.44" font-family="Arial" font-size="9.00" fill="#90ee90">valid frames</text>
</g>
<!-- preprocessed_frames -->
<g id="node22" class="node">
<title>preprocessed_frames</title>
<polygon fill="#9013fe" stroke="#9013fe" points="403.5,-146.14 400.5,-150.14 379.5,-150.14 376.5,-146.14 290.5,-146.14 290.5,-105.14 403.5,-105.14 403.5,-146.14"/>
<text text-anchor="middle" x="347" y="-134.14" font-family="Arial" font-size="10.00">Preprocessed Frames</text>
<text text-anchor="middle" x="347" y="-123.14" font-family="Arial" font-size="10.00">(32 per video)</text>
<text text-anchor="middle" x="347" y="-112.14" font-family="Arial" font-size="10.00">UMF/MF format</text>
</g>
<!-- atomic_saver&#45;&gt;preprocessed_frames -->
<g id="edge23" class="edge">
<title>atomic_saver&#45;&gt;preprocessed_frames</title>
<path fill="none" stroke="white" d="M246.4,-201.81C265.21,-187.75 291.48,-168.12 312.46,-152.45"/>
<polygon fill="white" stroke="white" points="314.59,-155.23 320.5,-146.44 310.4,-149.62 314.59,-155.23"/>
<text text-anchor="middle" x="321" y="-167.65" font-family="Arial" font-size="9.00" fill="#dda0dd">save frames</text>
</g>
<!-- checkpoint_data&#45;&gt;process_dataset -->
<g id="edge31" class="edge">
<title>checkpoint_data&#45;&gt;process_dataset</title>
<path fill="none" stroke="#00ffff" stroke-dasharray="5,2" d="M342.53,-249.46C338.51,-285.86 333.86,-347.69 346,-366.23 368.61,-400.75 410.96,-419.47 447.98,-429.58"/>
<polygon fill="#00ffff" stroke="#00ffff" points="447.2,-432.99 457.76,-432.08 448.94,-426.21 447.2,-432.99"/>
<text text-anchor="middle" x="381" y="-338.03" font-family="Arial" font-size="9.00" fill="#00ffff">resume progress</text>
</g>
<!-- emergency_backup -->
<g id="node25" class="node">
<title>emergency_backup</title>
<ellipse fill="#d0021b" stroke="#d0021b" cx="196" cy="-340.23" rx="72.25" ry="21.43"/>
<text text-anchor="middle" x="196" y="-343.23" font-family="Arial" font-size="10.00">Emergency Backup</text>
<text text-anchor="middle" x="196" y="-332.23" font-family="Arial" font-size="10.00">System</text>
</g>
<!-- emergency_backup&#45;&gt;checkpoint_data -->
<g id="edge27" class="edge">
<title>emergency_backup&#45;&gt;checkpoint_data</title>
<path fill="none" stroke="white" d="M217.13,-319.94C229.97,-308.96 247.11,-295.58 264,-286.23 273.1,-281.19 277.13,-283.67 286,-278.23 295.88,-272.16 305.52,-264.29 314.1,-256.37"/>
<polygon fill="white" stroke="white" points="316.53,-258.89 321.33,-249.44 311.69,-253.83 316.53,-258.89"/>
<text text-anchor="middle" x="298" y="-289.03" font-family="Arial" font-size="9.00" fill="#ffa07a">emergency save</text>
</g>
<!-- session_handler&#45;&gt;emergency_backup -->
<g id="edge26" class="edge">
<title>session_handler&#45;&gt;emergency_backup</title>
<path fill="none" stroke="white" d="M212.75,-420.99C209.76,-406.76 205.71,-387.47 202.34,-371.42"/>
<polygon fill="white" stroke="white" points="205.72,-370.5 200.24,-361.43 198.87,-371.94 205.72,-370.5"/>
<text text-anchor="middle" x="240" y="-387.03" font-family="Arial" font-size="9.00" fill="#ffa07a">signal handling</text>
</g>
<!-- retry_mechanism -->
<g id="node27" class="node">
<title>retry_mechanism</title>
<ellipse fill="#d0021b" stroke="#d0021b" cx="82" cy="-442.23" rx="66.44" ry="21.43"/>
<text text-anchor="middle" x="82" y="-445.23" font-family="Arial" font-size="10.00">Retry Mechanism</text>
<text text-anchor="middle" x="82" y="-434.23" font-family="Arial" font-size="10.00">(Max 3 attempts)</text>
</g>
<!-- retry_mechanism&#45;&gt;atomic_saver -->
<g id="edge28" class="edge">
<title>retry_mechanism&#45;&gt;atomic_saver</title>
<path fill="none" stroke="white" d="M68.82,-421.39C52.21,-393.64 28.38,-342.57 51,-306.23 75.5,-266.86 124.41,-245.37 163.67,-233.97"/>
<polygon fill="white" stroke="white" points="164.71,-237.32 173.42,-231.29 162.85,-230.57 164.71,-237.32"/>
<text text-anchor="middle" x="83" y="-338.03" font-family="Arial" font-size="9.00" fill="#ffa07a">failure recovery</text>
</g>
</g>
</svg>
