<?xml version="1.0" encoding="UTF-8" standalone="no"?>
<!DOCTYPE svg PUBLIC "-//W3C//DTD SVG 1.1//EN"
 "http://www.w3.org/Graphics/SVG/1.1/DTD/svg11.dtd">
<!-- Generated by graphviz version 2.43.0 (0)
 -->
<!-- Title: Multimodal_Emotion_Analysis_Architecture Pages: 1 -->
<svg width="1553pt" height="1600pt"
 viewBox="0.00 0.00 1553.16 1599.50" xmlns="http://www.w3.org/2000/svg" xmlns:xlink="http://www.w3.org/1999/xlink">
<g id="graph0" class="graph" transform="scale(1 1) rotate(0) translate(4 1595.5)">
<title>Multimodal_Emotion_Analysis_Architecture</title>
<polygon fill="#2a2a2a" stroke="transparent" points="-4,4 -4,-1595.5 1549.16,-1595.5 1549.16,4 -4,4"/>
<text text-anchor="start" x="512.08" y="-1567.7" font-family="Arial" font-weight="bold" font-size="26.00" fill="#50e3c2">Multimodal Emotion Analysis Architecture</text>
<text text-anchor="start" x="550.08" y="-1551.3" font-family="Arial" font-size="14.00" fill="#e6e6e6">MELD Dataset: Text + Audio + Video → BiLSTM → GNN → Classification</text>
<g id="clust1" class="cluster">
<title>cluster_dataset</title>
<path fill="#2a2a2a" stroke="white" stroke-width="0" d="M238.16,-1288.13C238.16,-1288.13 638.16,-1288.13 638.16,-1288.13 644.16,-1288.13 650.16,-1294.13 650.16,-1300.13 650.16,-1300.13 650.16,-1523.5 650.16,-1523.5 650.16,-1529.5 644.16,-1535.5 638.16,-1535.5 638.16,-1535.5 238.16,-1535.5 238.16,-1535.5 232.16,-1535.5 226.16,-1529.5 226.16,-1523.5 226.16,-1523.5 226.16,-1300.13 226.16,-1300.13 226.16,-1294.13 232.16,-1288.13 238.16,-1288.13"/>
<text text-anchor="middle" x="438.16" y="-1521.9" font-family="Arial" font-size="12.00" fill="white">MELD DATASET</text>
</g>
<g id="clust2" class="cluster">
<title>cluster_text</title>
<path fill="#2a2a2a" stroke="white" stroke-width="0" d="M66.16,-580C66.16,-580 230.16,-580 230.16,-580 236.16,-580 242.16,-586 242.16,-592 242.16,-592 242.16,-1195.13 242.16,-1195.13 242.16,-1201.13 236.16,-1207.13 230.16,-1207.13 230.16,-1207.13 66.16,-1207.13 66.16,-1207.13 60.16,-1207.13 54.16,-1201.13 54.16,-1195.13 54.16,-1195.13 54.16,-592 54.16,-592 54.16,-586 60.16,-580 66.16,-580"/>
<text text-anchor="middle" x="148.16" y="-1193.53" font-family="Arial" font-size="12.00" fill="white">TEXT FEATURE EXTRACTION</text>
</g>
<g id="clust3" class="cluster">
<title>cluster_audio</title>
<path fill="#2a2a2a" stroke="white" stroke-width="0" d="M304.16,-580C304.16,-580 516.16,-580 516.16,-580 522.16,-580 528.16,-586 528.16,-592 528.16,-592 528.16,-1195.13 528.16,-1195.13 528.16,-1201.13 522.16,-1207.13 516.16,-1207.13 516.16,-1207.13 304.16,-1207.13 304.16,-1207.13 298.16,-1207.13 292.16,-1201.13 292.16,-1195.13 292.16,-1195.13 292.16,-592 292.16,-592 292.16,-586 298.16,-580 304.16,-580"/>
<text text-anchor="middle" x="410.16" y="-1193.53" font-family="Arial" font-size="12.00" fill="white">AUDIO FEATURE EXTRACTION</text>
</g>
<g id="clust4" class="cluster">
<title>cluster_video</title>
<path fill="#2a2a2a" stroke="white" stroke-width="0" d="M566.16,-580C566.16,-580 737.16,-580 737.16,-580 743.16,-580 749.16,-586 749.16,-592 749.16,-592 749.16,-1195.13 749.16,-1195.13 749.16,-1201.13 743.16,-1207.13 737.16,-1207.13 737.16,-1207.13 566.16,-1207.13 566.16,-1207.13 560.16,-1207.13 554.16,-1201.13 554.16,-1195.13 554.16,-1195.13 554.16,-592 554.16,-592 554.16,-586 560.16,-580 566.16,-580"/>
<text text-anchor="middle" x="651.66" y="-1193.53" font-family="Arial" font-size="12.00" fill="white">VIDEO FEATURE EXTRACTION</text>
</g>
<g id="clust5" class="cluster">
<title>cluster_fusion</title>
<path fill="#2a2a2a" stroke="white" stroke-width="0" d="M494.16,-8C494.16,-8 718.16,-8 718.16,-8 724.16,-8 730.16,-14 730.16,-20 730.16,-20 730.16,-465.69 730.16,-465.69 730.16,-471.69 724.16,-477.69 718.16,-477.69 718.16,-477.69 494.16,-477.69 494.16,-477.69 488.16,-477.69 482.16,-471.69 482.16,-465.69 482.16,-465.69 482.16,-20 482.16,-20 482.16,-14 488.16,-8 494.16,-8"/>
<text text-anchor="middle" x="606.16" y="-464.09" font-family="Arial" font-size="12.00" fill="white">MULTIMODAL FUSION &amp; BiLSTM</text>
</g>
<g id="clust6" class="cluster">
<title>cluster_gnn</title>
<path fill="#2a2a2a" stroke="white" stroke-width="0" d="M1174.16,-8C1174.16,-8 1358.16,-8 1358.16,-8 1364.16,-8 1370.16,-14 1370.16,-20 1370.16,-20 1370.16,-476.13 1370.16,-476.13 1370.16,-482.13 1364.16,-488.13 1358.16,-488.13 1358.16,-488.13 1174.16,-488.13 1174.16,-488.13 1168.16,-488.13 1162.16,-482.13 1162.16,-476.13 1162.16,-476.13 1162.16,-20 1162.16,-20 1162.16,-14 1168.16,-8 1174.16,-8"/>
<text text-anchor="middle" x="1266.16" y="-474.53" font-family="Arial" font-size="12.00" fill="white">GRAPH NEURAL NETWORK</text>
</g>
<g id="clust7" class="cluster">
<title>cluster_classification</title>
<path fill="#2a2a2a" stroke="white" stroke-width="0" d="M1037.16,-750.13C1037.16,-750.13 1186.16,-750.13 1186.16,-750.13 1192.16,-750.13 1198.16,-756.13 1198.16,-762.13 1198.16,-762.13 1198.16,-1041.13 1198.16,-1041.13 1198.16,-1047.13 1192.16,-1053.13 1186.16,-1053.13 1186.16,-1053.13 1037.16,-1053.13 1037.16,-1053.13 1031.16,-1053.13 1025.16,-1047.13 1025.16,-1041.13 1025.16,-1041.13 1025.16,-762.13 1025.16,-762.13 1025.16,-756.13 1031.16,-750.13 1037.16,-750.13"/>
<text text-anchor="middle" x="1111.66" y="-1039.53" font-family="Arial" font-size="12.00" fill="white">EMOTION CLASSIFICATION</text>
</g>
<g id="clust8" class="cluster">
<title>cluster_training</title>
<path fill="#2a2a2a" stroke="white" stroke-width="0" d="M772.16,-373.69C772.16,-373.69 1142.16,-373.69 1142.16,-373.69 1148.16,-373.69 1154.16,-379.69 1154.16,-385.69 1154.16,-385.69 1154.16,-657.13 1154.16,-657.13 1154.16,-663.13 1148.16,-669.13 1142.16,-669.13 1142.16,-669.13 772.16,-669.13 772.16,-669.13 766.16,-669.13 760.16,-663.13 760.16,-657.13 760.16,-657.13 760.16,-385.69 760.16,-385.69 760.16,-379.69 766.16,-373.69 772.16,-373.69"/>
<text text-anchor="middle" x="957.16" y="-655.53" font-family="Arial" font-size="12.00" fill="white">TRAINING &amp; EVALUATION</text>
</g>
<!-- meld_dataset -->
<g id="node1" class="node">
<title>meld_dataset</title>
<path fill="#ff6b6b" stroke="#ff6b6b" d="M503.16,-1501.53C503.16,-1504.38 477.61,-1506.69 446.16,-1506.69 414.71,-1506.69 389.16,-1504.38 389.16,-1501.53 389.16,-1501.53 389.16,-1455.1 389.16,-1455.1 389.16,-1452.25 414.71,-1449.94 446.16,-1449.94 477.61,-1449.94 503.16,-1452.25 503.16,-1455.1 503.16,-1455.1 503.16,-1501.53 503.16,-1501.53"/>
<path fill="none" stroke="#ff6b6b" d="M503.16,-1501.53C503.16,-1498.69 477.61,-1496.37 446.16,-1496.37 414.71,-1496.37 389.16,-1498.69 389.16,-1501.53"/>
<text text-anchor="middle" x="446.16" y="-1486.82" font-family="Arial" font-size="10.00">MELD Dataset</text>
<text text-anchor="middle" x="446.16" y="-1475.82" font-family="Arial" font-size="10.00">Multimodal Multi&#45;Party</text>
<text text-anchor="middle" x="446.16" y="-1464.82" font-family="Arial" font-size="10.00">Conversation Dataset</text>
</g>
<!-- train_split -->
<g id="node2" class="node">
<title>train_split</title>
<polygon fill="#34495e" stroke="#34495e" points="315.66,-1332.13 312.66,-1336.13 291.66,-1336.13 288.66,-1332.13 234.66,-1332.13 234.66,-1296.13 315.66,-1296.13 315.66,-1332.13"/>
<text text-anchor="middle" x="275.16" y="-1317.13" font-family="Arial" font-size="10.00">Train Split</text>
<text text-anchor="middle" x="275.16" y="-1306.13" font-family="Arial" font-size="10.00">(Training Data)</text>
</g>
<!-- meld_dataset&#45;&gt;train_split -->
<g id="edge1" class="edge">
<title>meld_dataset&#45;&gt;train_split</title>
<path fill="none" stroke="white" d="M417.15,-1449.8C384.48,-1418.81 331.87,-1368.92 300.69,-1339.35"/>
<polygon fill="white" stroke="white" points="302.92,-1336.63 293.25,-1332.29 298.1,-1341.71 302.92,-1336.63"/>
<text text-anchor="middle" x="372.16" y="-1388.93" font-family="Arial" font-size="9.00" fill="#ffd700">partition</text>
</g>
<!-- dev_split -->
<g id="node3" class="node">
<title>dev_split</title>
<polygon fill="#34495e" stroke="#34495e" points="490.66,-1332.13 487.66,-1336.13 466.66,-1336.13 463.66,-1332.13 401.66,-1332.13 401.66,-1296.13 490.66,-1296.13 490.66,-1332.13"/>
<text text-anchor="middle" x="446.16" y="-1317.13" font-family="Arial" font-size="10.00">Dev Split</text>
<text text-anchor="middle" x="446.16" y="-1306.13" font-family="Arial" font-size="10.00">(Validation Data)</text>
</g>
<!-- meld_dataset&#45;&gt;dev_split -->
<g id="edge2" class="edge">
<title>meld_dataset&#45;&gt;dev_split</title>
<path fill="none" stroke="white" d="M446.16,-1449.8C446.16,-1419.86 446.16,-1372.28 446.16,-1342.42"/>
<polygon fill="white" stroke="white" points="449.66,-1342.29 446.16,-1332.29 442.66,-1342.29 449.66,-1342.29"/>
<text text-anchor="middle" x="463.16" y="-1388.93" font-family="Arial" font-size="9.00" fill="#ffd700">partition</text>
</g>
<!-- test_split -->
<g id="node4" class="node">
<title>test_split</title>
<polygon fill="#34495e" stroke="#34495e" points="641.66,-1332.13 638.66,-1336.13 617.66,-1336.13 614.66,-1332.13 576.66,-1332.13 576.66,-1296.13 641.66,-1296.13 641.66,-1332.13"/>
<text text-anchor="middle" x="609.16" y="-1317.13" font-family="Arial" font-size="10.00">Test Split</text>
<text text-anchor="middle" x="609.16" y="-1306.13" font-family="Arial" font-size="10.00">(Test Data)</text>
</g>
<!-- meld_dataset&#45;&gt;test_split -->
<g id="edge3" class="edge">
<title>meld_dataset&#45;&gt;test_split</title>
<path fill="none" stroke="white" d="M473.81,-1449.8C504.96,-1418.81 555.11,-1368.92 584.82,-1339.35"/>
<polygon fill="white" stroke="white" points="587.3,-1341.82 591.92,-1332.29 582.36,-1336.86 587.3,-1341.82"/>
<text text-anchor="middle" x="554.16" y="-1388.93" font-family="Arial" font-size="9.00" fill="#ffd700">partition</text>
</g>
<!-- text_input -->
<g id="node5" class="node">
<title>text_input</title>
<polygon fill="#4ecdc4" stroke="#4ecdc4" points="200.16,-1178.13 94.16,-1178.13 94.16,-1142.13 206.16,-1142.13 206.16,-1172.13 200.16,-1178.13"/>
<polyline fill="none" stroke="#4ecdc4" points="200.16,-1178.13 200.16,-1172.13 "/>
<polyline fill="none" stroke="#4ecdc4" points="206.16,-1172.13 200.16,-1172.13 "/>
<text text-anchor="middle" x="150.16" y="-1163.13" font-family="Arial" font-size="10.00">Raw Text</text>
<text text-anchor="middle" x="150.16" y="-1152.13" font-family="Arial" font-size="10.00">(Dialogue Utterances)</text>
</g>
<!-- train_split&#45;&gt;text_input -->
<g id="edge4" class="edge">
<title>train_split&#45;&gt;text_input</title>
<path fill="none" stroke="white" d="M234.59,-1308.39C166.71,-1299.53 34.79,-1278.03 7.16,-1242.13 -19.05,-1208.07 35.09,-1186.05 84.1,-1173.69"/>
<polygon fill="white" stroke="white" points="85.22,-1177.02 94.13,-1171.27 83.58,-1170.21 85.22,-1177.02"/>
<text text-anchor="middle" x="24.66" y="-1234.93" font-family="Arial" font-size="9.00" fill="#4ecdc4">text data</text>
</g>
<!-- audio_input -->
<g id="node9" class="node">
<title>audio_input</title>
<polygon fill="#45b7d1" stroke="#45b7d1" points="448.66,-1178.13 365.66,-1178.13 365.66,-1142.13 454.66,-1142.13 454.66,-1172.13 448.66,-1178.13"/>
<polyline fill="none" stroke="#45b7d1" points="448.66,-1178.13 448.66,-1172.13 "/>
<polyline fill="none" stroke="#45b7d1" points="454.66,-1172.13 448.66,-1172.13 "/>
<text text-anchor="middle" x="410.16" y="-1163.13" font-family="Arial" font-size="10.00">Raw Audio</text>
<text text-anchor="middle" x="410.16" y="-1152.13" font-family="Arial" font-size="10.00">(Utterance&#45;level)</text>
</g>
<!-- train_split&#45;&gt;audio_input -->
<g id="edge10" class="edge">
<title>train_split&#45;&gt;audio_input</title>
<path fill="none" stroke="white" d="M283.94,-1295.97C293.16,-1278.82 308.72,-1252.2 326.16,-1232.13 341.42,-1214.58 361.16,-1197.66 377.68,-1184.74"/>
<polygon fill="white" stroke="white" points="380.18,-1187.24 385.98,-1178.37 375.92,-1181.68 380.18,-1187.24"/>
<text text-anchor="middle" x="348.16" y="-1234.93" font-family="Arial" font-size="9.00" fill="#45b7d1">audio data</text>
</g>
<!-- video_input -->
<g id="node13" class="node">
<title>video_input</title>
<polygon fill="#96ceb4" stroke="#96ceb4" points="708.66,-1178.13 631.66,-1178.13 631.66,-1142.13 714.66,-1142.13 714.66,-1172.13 708.66,-1178.13"/>
<polyline fill="none" stroke="#96ceb4" points="708.66,-1178.13 708.66,-1172.13 "/>
<polyline fill="none" stroke="#96ceb4" points="714.66,-1172.13 708.66,-1172.13 "/>
<text text-anchor="middle" x="673.16" y="-1163.13" font-family="Arial" font-size="10.00">Raw Video</text>
<text text-anchor="middle" x="673.16" y="-1152.13" font-family="Arial" font-size="10.00">(Video Frames)</text>
</g>
<!-- train_split&#45;&gt;video_input -->
<g id="edge16" class="edge">
<title>train_split&#45;&gt;video_input</title>
<path fill="none" stroke="white" d="M315.99,-1300.22C329.64,-1296.1 345,-1291.7 359.16,-1288.13 456.87,-1263.51 491.01,-1287.14 581.16,-1242.13 608.82,-1228.32 634.71,-1204.11 651.93,-1185.74"/>
<polygon fill="white" stroke="white" points="654.59,-1188.01 658.76,-1178.27 649.43,-1183.29 654.59,-1188.01"/>
<text text-anchor="middle" x="616.66" y="-1234.93" font-family="Arial" font-size="9.00" fill="#96ceb4">video data</text>
</g>
<!-- dev_split&#45;&gt;text_input -->
<g id="edge5" class="edge">
<title>dev_split&#45;&gt;text_input</title>
<path fill="none" stroke="white" d="M401.52,-1299.33C363.59,-1286.79 308.27,-1266.54 263.16,-1242.13 232.67,-1225.63 200.82,-1202.14 178.73,-1184.7"/>
<polygon fill="white" stroke="white" points="180.77,-1181.85 170.77,-1178.34 176.4,-1187.32 180.77,-1181.85"/>
<text text-anchor="middle" x="280.66" y="-1234.93" font-family="Arial" font-size="9.00" fill="#4ecdc4">text data</text>
</g>
<!-- dev_split&#45;&gt;audio_input -->
<g id="edge11" class="edge">
<title>dev_split&#45;&gt;audio_input</title>
<path fill="none" stroke="white" d="M428.68,-1295.98C416.38,-1282.62 400.95,-1262.89 394.16,-1242.13 388.39,-1224.47 392.56,-1203.93 398.09,-1187.95"/>
<polygon fill="white" stroke="white" points="401.52,-1188.78 401.83,-1178.19 394.98,-1186.28 401.52,-1188.78"/>
<text text-anchor="middle" x="416.16" y="-1234.93" font-family="Arial" font-size="9.00" fill="#45b7d1">audio data</text>
</g>
<!-- dev_split&#45;&gt;video_input -->
<g id="edge17" class="edge">
<title>dev_split&#45;&gt;video_input</title>
<path fill="none" stroke="white" d="M490.86,-1300.17C504.72,-1296.22 520.05,-1291.93 534.16,-1288.13 614.31,-1266.56 664.21,-1307.65 715.16,-1242.13 728.65,-1224.78 715.18,-1202.44 700.01,-1185.62"/>
<polygon fill="white" stroke="white" points="702.46,-1183.12 693.01,-1178.32 697.41,-1187.96 702.46,-1183.12"/>
<text text-anchor="middle" x="740.66" y="-1234.93" font-family="Arial" font-size="9.00" fill="#96ceb4">video data</text>
</g>
<!-- test_split&#45;&gt;text_input -->
<g id="edge6" class="edge">
<title>test_split&#45;&gt;text_input</title>
<path fill="none" stroke="white" d="M583.42,-1295.97C553.8,-1277.11 503.07,-1247.45 455.16,-1232.13 376.56,-1206.98 351.14,-1227.48 271.16,-1207.13 246.4,-1200.83 219.77,-1191.05 197.82,-1182.13"/>
<polygon fill="white" stroke="white" points="198.98,-1178.82 188.4,-1178.24 196.3,-1185.29 198.98,-1178.82"/>
<text text-anchor="middle" x="498.66" y="-1234.93" font-family="Arial" font-size="9.00" fill="#4ecdc4">text data</text>
</g>
<!-- test_split&#45;&gt;audio_input -->
<g id="edge12" class="edge">
<title>test_split&#45;&gt;audio_input</title>
<path fill="none" stroke="white" d="M641.8,-1312.63C720.57,-1310.39 910.19,-1298.18 849.16,-1232.13 825.26,-1206.26 567.55,-1214.76 533.16,-1207.13 507.26,-1201.38 479.49,-1191.35 456.9,-1182.12"/>
<polygon fill="white" stroke="white" points="458.14,-1178.85 447.56,-1178.23 455.45,-1185.31 458.14,-1178.85"/>
<text text-anchor="middle" x="878.16" y="-1234.93" font-family="Arial" font-size="9.00" fill="#45b7d1">audio data</text>
</g>
<!-- test_split&#45;&gt;video_input -->
<g id="edge18" class="edge">
<title>test_split&#45;&gt;video_input</title>
<path fill="none" stroke="white" d="M641.81,-1312.06C724.86,-1308.6 940.68,-1294.62 984.16,-1242.13 1018.72,-1200.41 821.93,-1175.38 724.86,-1165.72"/>
<polygon fill="white" stroke="white" points="724.96,-1162.21 714.67,-1164.73 724.28,-1169.18 724.96,-1162.21"/>
<text text-anchor="middle" x="1009.66" y="-1234.93" font-family="Arial" font-size="9.00" fill="#96ceb4">video data</text>
</g>
<!-- roberta_tokenizer -->
<g id="node6" class="node">
<title>roberta_tokenizer</title>
<polygon fill="#4ecdc4" stroke="#4ecdc4" points="202.16,-1016.13 98.16,-1016.13 98.16,-980.13 202.16,-980.13 202.16,-1016.13"/>
<text text-anchor="middle" x="150.16" y="-1001.13" font-family="Arial" font-size="10.00">RoBERTa Tokenizer</text>
<text text-anchor="middle" x="150.16" y="-990.13" font-family="Arial" font-size="10.00">(roberta&#45;base)</text>
</g>
<!-- text_input&#45;&gt;roberta_tokenizer -->
<g id="edge7" class="edge">
<title>text_input&#45;&gt;roberta_tokenizer</title>
<path fill="none" stroke="white" d="M150.16,-1142.01C150.16,-1114.48 150.16,-1060.14 150.16,-1026.98"/>
<polygon fill="white" stroke="white" points="153.66,-1026.61 150.16,-1016.61 146.66,-1026.61 153.66,-1026.61"/>
<text text-anchor="middle" x="167.66" y="-1080.93" font-family="Arial" font-size="9.00" fill="#4ecdc4">tokenize</text>
</g>
<!-- roberta_model -->
<g id="node7" class="node">
<title>roberta_model</title>
<polygon fill="#4ecdc4" stroke="#4ecdc4" points="214.16,-832.13 86.16,-832.13 86.16,-780.13 214.16,-780.13 214.16,-832.13"/>
<text text-anchor="middle" x="150.16" y="-820.13" font-family="Arial" font-size="10.00">RoBERTa Model</text>
<text text-anchor="middle" x="150.16" y="-809.13" font-family="Arial" font-size="10.00">• Contextual Embeddings</text>
<text text-anchor="middle" x="150.16" y="-798.13" font-family="Arial" font-size="10.00">• 768&#45;dim features</text>
<text text-anchor="middle" x="150.16" y="-787.13" font-family="Arial" font-size="10.00">• Attention mechanisms</text>
</g>
<!-- roberta_tokenizer&#45;&gt;roberta_model -->
<g id="edge8" class="edge">
<title>roberta_tokenizer&#45;&gt;roberta_model</title>
<path fill="none" stroke="white" d="M150.16,-979.93C150.16,-948.92 150.16,-883.08 150.16,-842.21"/>
<polygon fill="white" stroke="white" points="153.66,-842.15 150.16,-832.15 146.66,-842.15 153.66,-842.15"/>
<text text-anchor="middle" x="183.16" y="-910.93" font-family="Arial" font-size="9.00" fill="#4ecdc4">encoded tokens</text>
</g>
<!-- text_features -->
<g id="node8" class="node">
<title>text_features</title>
<path fill="#4ecdc4" stroke="#4ecdc4" d="M228.66,-625.61C228.66,-627.69 199.3,-629.38 163.16,-629.38 127.02,-629.38 97.66,-627.69 97.66,-625.61 97.66,-625.61 97.66,-591.65 97.66,-591.65 97.66,-589.57 127.02,-587.88 163.16,-587.88 199.3,-587.88 228.66,-589.57 228.66,-591.65 228.66,-591.65 228.66,-625.61 228.66,-625.61"/>
<path fill="none" stroke="#4ecdc4" d="M228.66,-625.61C228.66,-623.52 199.3,-621.83 163.16,-621.83 127.02,-621.83 97.66,-623.52 97.66,-625.61"/>
<text text-anchor="middle" x="163.16" y="-611.63" font-family="Arial" font-size="10.00">Text Features</text>
<text text-anchor="middle" x="163.16" y="-600.63" font-family="Arial" font-size="10.00">[batch_size, seq_len, 768]</text>
</g>
<!-- roberta_model&#45;&gt;text_features -->
<g id="edge9" class="edge">
<title>roberta_model&#45;&gt;text_features</title>
<path fill="none" stroke="white" d="M151.83,-779.97C154.23,-743.96 158.63,-677.84 161.18,-639.43"/>
<polygon fill="white" stroke="white" points="164.68,-639.59 161.85,-629.38 157.69,-639.12 164.68,-639.59"/>
<text text-anchor="middle" x="183.16" y="-696.93" font-family="Arial" font-size="9.00" fill="#4ecdc4">embeddings</text>
</g>
<!-- feature_concatenation -->
<g id="node17" class="node">
<title>feature_concatenation</title>
<polygon fill="#ffeaa7" stroke="#ffeaa7" points="606.16,-448.69 490.16,-407.69 606.16,-366.69 722.16,-407.69 606.16,-448.69"/>
<text text-anchor="middle" x="606.16" y="-416.19" font-family="Arial" font-size="10.00">Feature Concatenation</text>
<text text-anchor="middle" x="606.16" y="-405.19" font-family="Arial" font-size="10.00">[text + audio + video]</text>
<text text-anchor="middle" x="606.16" y="-394.19" font-family="Arial" font-size="10.00">Dimension alignment</text>
</g>
<!-- text_features&#45;&gt;feature_concatenation -->
<g id="edge22" class="edge">
<title>text_features&#45;&gt;feature_concatenation</title>
<path fill="none" stroke="white" d="M206.45,-588.19C286.24,-552.36 456.64,-475.84 547.02,-435.25"/>
<polygon fill="white" stroke="white" points="548.62,-438.37 556.31,-431.08 545.75,-431.98 548.62,-438.37"/>
<text text-anchor="middle" x="389.66" y="-515.93" font-family="Arial" font-size="9.00" fill="#ffeaa7">text input</text>
</g>
<!-- audio_preprocessing -->
<g id="node10" class="node">
<title>audio_preprocessing</title>
<polygon fill="#45b7d1" stroke="#45b7d1" points="463.66,-1018.63 356.66,-1018.63 356.66,-977.63 463.66,-977.63 463.66,-1018.63"/>
<text text-anchor="middle" x="410.16" y="-1006.63" font-family="Arial" font-size="10.00">Audio Preprocessing</text>
<text text-anchor="middle" x="410.16" y="-995.63" font-family="Arial" font-size="10.00">• Noise reduction</text>
<text text-anchor="middle" x="410.16" y="-984.63" font-family="Arial" font-size="10.00">• Normalization</text>
</g>
<!-- audio_input&#45;&gt;audio_preprocessing -->
<g id="edge13" class="edge">
<title>audio_input&#45;&gt;audio_preprocessing</title>
<path fill="none" stroke="white" d="M410.16,-1142.01C410.16,-1115.02 410.16,-1062.24 410.16,-1028.93"/>
<polygon fill="white" stroke="white" points="413.66,-1028.86 410.16,-1018.86 406.66,-1028.86 413.66,-1028.86"/>
<text text-anchor="middle" x="433.16" y="-1080.93" font-family="Arial" font-size="9.00" fill="#45b7d1">preprocess</text>
</g>
<!-- audio_feature_extractor -->
<g id="node11" class="node">
<title>audio_feature_extractor</title>
<polygon fill="#45b7d1" stroke="#45b7d1" points="519.66,-837.63 300.66,-837.63 300.66,-774.63 519.66,-774.63 519.66,-837.63"/>
<text text-anchor="middle" x="410.16" y="-825.63" font-family="Arial" font-size="10.00">Audio Feature Extraction (Using openSMILE) </text>
<text text-anchor="middle" x="410.16" y="-814.63" font-family="Arial" font-size="10.00">• Spectral features</text>
<text text-anchor="middle" x="410.16" y="-803.63" font-family="Arial" font-size="10.00">• Prosodic features</text>
<text text-anchor="middle" x="410.16" y="-792.63" font-family="Arial" font-size="10.00">• MFCCs/Mel&#45;spectrograms</text>
<text text-anchor="middle" x="410.16" y="-781.63" font-family="Arial" font-size="10.00">• Apply functionals (mean, std, min, max, etc.)</text>
</g>
<!-- audio_preprocessing&#45;&gt;audio_feature_extractor -->
<g id="edge14" class="edge">
<title>audio_preprocessing&#45;&gt;audio_feature_extractor</title>
<path fill="none" stroke="white" d="M410.16,-977.51C410.16,-947.14 410.16,-888.06 410.16,-848.1"/>
<polygon fill="white" stroke="white" points="413.66,-847.88 410.16,-837.88 406.66,-847.88 413.66,-847.88"/>
<text text-anchor="middle" x="441.66" y="-910.93" font-family="Arial" font-size="9.00" fill="#45b7d1">extract features</text>
</g>
<!-- audio_features -->
<g id="node12" class="node">
<title>audio_features</title>
<path fill="#45b7d1" stroke="#45b7d1" d="M473.16,-625.61C473.16,-627.69 446.27,-629.38 413.16,-629.38 380.06,-629.38 353.16,-627.69 353.16,-625.61 353.16,-625.61 353.16,-591.65 353.16,-591.65 353.16,-589.57 380.06,-587.88 413.16,-587.88 446.27,-587.88 473.16,-589.57 473.16,-591.65 473.16,-591.65 473.16,-625.61 473.16,-625.61"/>
<path fill="none" stroke="#45b7d1" d="M473.16,-625.61C473.16,-623.52 446.27,-621.83 413.16,-621.83 380.06,-621.83 353.16,-623.52 353.16,-625.61"/>
<text text-anchor="middle" x="413.16" y="-611.63" font-family="Arial" font-size="10.00">Audio Features</text>
<text text-anchor="middle" x="413.16" y="-600.63" font-family="Arial" font-size="10.00">[batch_size, audio_dim]</text>
</g>
<!-- audio_feature_extractor&#45;&gt;audio_features -->
<g id="edge15" class="edge">
<title>audio_feature_extractor&#45;&gt;audio_features</title>
<path fill="none" stroke="white" d="M410.63,-774.58C411.2,-737.63 412.15,-675.86 412.71,-639.31"/>
<polygon fill="white" stroke="white" points="416.21,-639.32 412.86,-629.27 409.21,-639.21 416.21,-639.32"/>
<text text-anchor="middle" x="438.66" y="-696.93" font-family="Arial" font-size="9.00" fill="#45b7d1">audio vectors</text>
</g>
<!-- audio_features&#45;&gt;feature_concatenation -->
<g id="edge23" class="edge">
<title>audio_features&#45;&gt;feature_concatenation</title>
<path fill="none" stroke="white" d="M432.37,-587.83C464.39,-554.82 529.18,-488.04 569.97,-445.99"/>
<polygon fill="white" stroke="white" points="572.59,-448.32 577.05,-438.7 567.57,-443.44 572.59,-448.32"/>
<text text-anchor="middle" x="526.16" y="-515.93" font-family="Arial" font-size="9.00" fill="#ffeaa7">audio input</text>
</g>
<!-- frame_extraction -->
<g id="node14" class="node">
<title>frame_extraction</title>
<polygon fill="#96ceb4" stroke="#96ceb4" points="736.66,-1024.13 605.66,-1024.13 605.66,-972.13 736.66,-972.13 736.66,-1024.13"/>
<text text-anchor="middle" x="671.16" y="-1012.13" font-family="Arial" font-size="10.00">Frame Extraction</text>
<text text-anchor="middle" x="671.16" y="-1001.13" font-family="Arial" font-size="10.00">• Temporal sampling</text>
<text text-anchor="middle" x="671.16" y="-990.13" font-family="Arial" font-size="10.00">• Frame preprocessing</text>
<text text-anchor="middle" x="671.16" y="-979.13" font-family="Arial" font-size="10.00">• Resolution normalization</text>
</g>
<!-- video_input&#45;&gt;frame_extraction -->
<g id="edge19" class="edge">
<title>video_input&#45;&gt;frame_extraction</title>
<path fill="none" stroke="white" d="M672.95,-1142.01C672.63,-1116.47 672.02,-1067.86 671.6,-1034.48"/>
<polygon fill="white" stroke="white" points="675.1,-1034.19 671.48,-1024.23 668.1,-1034.28 675.1,-1034.19"/>
<text text-anchor="middle" x="701.16" y="-1080.93" font-family="Arial" font-size="9.00" fill="#96ceb4">extract frames</text>
</g>
<!-- slowfast_r50 -->
<g id="node15" class="node">
<title>slowfast_r50</title>
<polygon fill="#96ceb4" stroke="#96ceb4" points="734.66,-832.13 605.66,-832.13 605.66,-780.13 734.66,-780.13 734.66,-832.13"/>
<text text-anchor="middle" x="670.16" y="-820.13" font-family="Arial" font-size="10.00">SlowFast R50 Model</text>
<text text-anchor="middle" x="670.16" y="-809.13" font-family="Arial" font-size="10.00">• Slow pathway (spatial)</text>
<text text-anchor="middle" x="670.16" y="-798.13" font-family="Arial" font-size="10.00">• Fast pathway (temporal)</text>
<text text-anchor="middle" x="670.16" y="-787.13" font-family="Arial" font-size="10.00">• 3D CNN features</text>
</g>
<!-- frame_extraction&#45;&gt;slowfast_r50 -->
<g id="edge20" class="edge">
<title>frame_extraction&#45;&gt;slowfast_r50</title>
<path fill="none" stroke="white" d="M671.03,-971.9C670.85,-938.59 670.54,-879.78 670.35,-842.17"/>
<polygon fill="white" stroke="white" points="673.85,-842.14 670.29,-832.16 666.85,-842.18 673.85,-842.14"/>
<text text-anchor="middle" x="705.66" y="-910.93" font-family="Arial" font-size="9.00" fill="#96ceb4">frame sequences</text>
</g>
<!-- video_features -->
<g id="node16" class="node">
<title>video_features</title>
<path fill="#96ceb4" stroke="#96ceb4" d="M682.16,-625.61C682.16,-627.69 655.27,-629.38 622.16,-629.38 589.06,-629.38 562.16,-627.69 562.16,-625.61 562.16,-625.61 562.16,-591.65 562.16,-591.65 562.16,-589.57 589.06,-587.88 622.16,-587.88 655.27,-587.88 682.16,-589.57 682.16,-591.65 682.16,-591.65 682.16,-625.61 682.16,-625.61"/>
<path fill="none" stroke="#96ceb4" d="M682.16,-625.61C682.16,-623.52 655.27,-621.83 622.16,-621.83 589.06,-621.83 562.16,-623.52 562.16,-625.61"/>
<text text-anchor="middle" x="622.16" y="-611.63" font-family="Arial" font-size="10.00">Video Features</text>
<text text-anchor="middle" x="622.16" y="-600.63" font-family="Arial" font-size="10.00">[batch_size, video_dim]</text>
</g>
<!-- slowfast_r50&#45;&gt;video_features -->
<g id="edge21" class="edge">
<title>slowfast_r50&#45;&gt;video_features</title>
<path fill="none" stroke="white" d="M663.99,-779.97C655.14,-743.96 638.91,-677.84 629.48,-639.43"/>
<polygon fill="white" stroke="white" points="632.79,-638.25 627.01,-629.38 626,-639.92 632.79,-638.25"/>
<text text-anchor="middle" x="671.66" y="-696.93" font-family="Arial" font-size="9.00" fill="#96ceb4">video vectors</text>
</g>
<!-- video_features&#45;&gt;feature_concatenation -->
<g id="edge24" class="edge">
<title>video_features&#45;&gt;feature_concatenation</title>
<path fill="none" stroke="white" d="M620.57,-587.83C618.15,-557.77 613.48,-499.72 610.11,-457.83"/>
<polygon fill="white" stroke="white" points="613.6,-457.51 609.31,-447.83 606.62,-458.07 613.6,-457.51"/>
<text text-anchor="middle" x="637.16" y="-515.93" font-family="Arial" font-size="9.00" fill="#ffeaa7">video input</text>
</g>
<!-- bilstm_layer -->
<g id="node18" class="node">
<title>bilstm_layer</title>
<polygon fill="#dda0dd" stroke="#dda0dd" points="702.66,-238.25 575.66,-238.25 575.66,-175.25 702.66,-175.25 702.66,-238.25"/>
<text text-anchor="middle" x="639.16" y="-226.25" font-family="Arial" font-size="10.00">BiLSTM Layer</text>
<text text-anchor="middle" x="639.16" y="-215.25" font-family="Arial" font-size="10.00">• Bidirectional processing</text>
<text text-anchor="middle" x="639.16" y="-204.25" font-family="Arial" font-size="10.00">• Temporal dependencies</text>
<text text-anchor="middle" x="639.16" y="-193.25" font-family="Arial" font-size="10.00">• Hidden state: 256</text>
<text text-anchor="middle" x="639.16" y="-182.25" font-family="Arial" font-size="10.00">• Dropout: 0.5</text>
</g>
<!-- feature_concatenation&#45;&gt;bilstm_layer -->
<g id="edge25" class="edge">
<title>feature_concatenation&#45;&gt;bilstm_layer</title>
<path fill="none" stroke="white" d="M593.9,-370.92C587.86,-348.12 583.21,-318.11 590.16,-292.25 594.39,-276.53 602.33,-260.72 610.62,-247.1"/>
<polygon fill="white" stroke="white" points="613.68,-248.81 616.07,-238.49 607.76,-245.06 613.68,-248.81"/>
<text text-anchor="middle" x="619.16" y="-295.05" font-family="Arial" font-size="9.00" fill="#dda0dd">fused features</text>
</g>
<!-- bilstm_features -->
<g id="node19" class="node">
<title>bilstm_features</title>
<path fill="#dda0dd" stroke="#dda0dd" d="M721.66,-53.6C721.66,-55.68 684.68,-57.38 639.16,-57.38 593.64,-57.38 556.66,-55.68 556.66,-53.6 556.66,-53.6 556.66,-19.65 556.66,-19.65 556.66,-17.57 593.64,-15.87 639.16,-15.87 684.68,-15.87 721.66,-17.57 721.66,-19.65 721.66,-19.65 721.66,-53.6 721.66,-53.6"/>
<path fill="none" stroke="#dda0dd" d="M721.66,-53.6C721.66,-51.52 684.68,-49.83 639.16,-49.83 593.64,-49.83 556.66,-51.52 556.66,-53.6"/>
<text text-anchor="middle" x="639.16" y="-39.62" font-family="Arial" font-size="10.00">BiLSTM Features</text>
<text text-anchor="middle" x="639.16" y="-28.62" font-family="Arial" font-size="10.00">[batch_size, seq_len, hidden_dim]</text>
</g>
<!-- bilstm_layer&#45;&gt;bilstm_features -->
<g id="edge26" class="edge">
<title>bilstm_layer&#45;&gt;bilstm_features</title>
<path fill="none" stroke="white" d="M639.16,-174.91C639.16,-144.52 639.16,-98.35 639.16,-68.09"/>
<polygon fill="white" stroke="white" points="642.66,-67.72 639.16,-57.72 635.66,-67.72 642.66,-67.72"/>
<text text-anchor="middle" x="677.66" y="-114.05" font-family="Arial" font-size="9.00" fill="#dda0dd">temporal encoding</text>
</g>
<!-- graph_construction -->
<g id="node20" class="node">
<title>graph_construction</title>
<polygon fill="#ffb347" stroke="#ffb347" points="1362.36,-407.69 1314.26,-459.07 1218.07,-459.07 1169.97,-407.69 1218.07,-356.31 1314.26,-356.31 1362.36,-407.69"/>
<text text-anchor="middle" x="1266.16" y="-427.19" font-family="Arial" font-size="10.00">Graph Construction</text>
<text text-anchor="middle" x="1266.16" y="-416.19" font-family="Arial" font-size="10.00">• Node: Utterances</text>
<text text-anchor="middle" x="1266.16" y="-405.19" font-family="Arial" font-size="10.00">• Edges: Dialogue flow</text>
<text text-anchor="middle" x="1266.16" y="-394.19" font-family="Arial" font-size="10.00">• Speaker relationships</text>
<text text-anchor="middle" x="1266.16" y="-383.19" font-family="Arial" font-size="10.00">• Temporal connections</text>
</g>
<!-- bilstm_features&#45;&gt;graph_construction -->
<g id="edge27" class="edge">
<title>bilstm_features&#45;&gt;graph_construction</title>
<path fill="none" stroke="white" d="M672.65,-57.34C771.12,-115.3 1061.27,-286.08 1195.97,-365.37"/>
<polygon fill="white" stroke="white" points="1194.22,-368.4 1204.61,-370.46 1197.77,-362.37 1194.22,-368.4"/>
<text text-anchor="middle" x="1025.66" y="-204.55" font-family="Arial" font-size="9.00" fill="#ffb347">utterance representations</text>
</g>
<!-- gnn_layers -->
<g id="node21" class="node">
<title>gnn_layers</title>
<polygon fill="#ffb347" stroke="#ffb347" points="1331.66,-238.25 1212.66,-238.25 1212.66,-175.25 1331.66,-175.25 1331.66,-238.25"/>
<text text-anchor="middle" x="1272.16" y="-226.25" font-family="Arial" font-size="10.00">GNN Layers</text>
<text text-anchor="middle" x="1272.16" y="-215.25" font-family="Arial" font-size="10.00">• Graph Attention (GAT)</text>
<text text-anchor="middle" x="1272.16" y="-204.25" font-family="Arial" font-size="10.00">• Message passing</text>
<text text-anchor="middle" x="1272.16" y="-193.25" font-family="Arial" font-size="10.00">• Node embeddings</text>
<text text-anchor="middle" x="1272.16" y="-182.25" font-family="Arial" font-size="10.00">• Edge features</text>
</g>
<!-- graph_construction&#45;&gt;gnn_layers -->
<g id="edge28" class="edge">
<title>graph_construction&#45;&gt;gnn_layers</title>
<path fill="none" stroke="white" d="M1267.68,-356.23C1268.69,-322.83 1270,-279.59 1270.94,-248.4"/>
<polygon fill="white" stroke="white" points="1274.44,-248.41 1271.24,-238.31 1267.44,-248.2 1274.44,-248.41"/>
<text text-anchor="middle" x="1302.66" y="-295.05" font-family="Arial" font-size="9.00" fill="#ffb347">dialogue graphs</text>
</g>
<!-- graph_features -->
<g id="node22" class="node">
<title>graph_features</title>
<path fill="#ffb347" stroke="#ffb347" d="M1353.66,-53.6C1353.66,-55.68 1327.44,-57.38 1295.16,-57.38 1262.88,-57.38 1236.66,-55.68 1236.66,-53.6 1236.66,-53.6 1236.66,-19.65 1236.66,-19.65 1236.66,-17.57 1262.88,-15.87 1295.16,-15.87 1327.44,-15.87 1353.66,-17.57 1353.66,-19.65 1353.66,-19.65 1353.66,-53.6 1353.66,-53.6"/>
<path fill="none" stroke="#ffb347" d="M1353.66,-53.6C1353.66,-51.52 1327.44,-49.83 1295.16,-49.83 1262.88,-49.83 1236.66,-51.52 1236.66,-53.6"/>
<text text-anchor="middle" x="1295.16" y="-39.62" font-family="Arial" font-size="10.00">Graph Representations</text>
<text text-anchor="middle" x="1295.16" y="-28.62" font-family="Arial" font-size="10.00">[num_nodes, gnn_dim]</text>
</g>
<!-- gnn_layers&#45;&gt;graph_features -->
<g id="edge29" class="edge">
<title>gnn_layers&#45;&gt;graph_features</title>
<path fill="none" stroke="white" d="M1276.38,-174.91C1280.56,-144.39 1286.91,-97.95 1291.05,-67.69"/>
<polygon fill="white" stroke="white" points="1294.53,-68.1 1292.41,-57.72 1287.59,-67.15 1294.53,-68.1"/>
<text text-anchor="middle" x="1323.16" y="-114.05" font-family="Arial" font-size="9.00" fill="#ffb347">graph embeddings</text>
</g>
<!-- classifier_head -->
<g id="node23" class="node">
<title>classifier_head</title>
<polygon fill="#ff69b4" stroke="#ff69b4" points="1190.16,-1024.13 1068.16,-1024.13 1068.16,-972.13 1190.16,-972.13 1190.16,-1024.13"/>
<text text-anchor="middle" x="1129.16" y="-1012.13" font-family="Arial" font-size="10.00">Classification Head</text>
<text text-anchor="middle" x="1129.16" y="-1001.13" font-family="Arial" font-size="10.00">• Fully connected layers</text>
<text text-anchor="middle" x="1129.16" y="-990.13" font-family="Arial" font-size="10.00">• Dropout regularization</text>
<text text-anchor="middle" x="1129.16" y="-979.13" font-family="Arial" font-size="10.00">• Activation: ReLU</text>
</g>
<!-- graph_features&#45;&gt;classifier_head -->
<g id="edge30" class="edge">
<title>graph_features&#45;&gt;classifier_head</title>
<path fill="none" stroke="white" d="M1347.44,-56.13C1405.8,-80.54 1492.16,-129.54 1492.16,-205.75 1492.16,-807.13 1492.16,-807.13 1492.16,-807.13 1492.16,-937.54 1305.99,-978.61 1200.3,-991.42"/>
<polygon fill="white" stroke="white" points="1199.86,-987.94 1190.33,-992.57 1200.67,-994.9 1199.86,-987.94"/>
<text text-anchor="middle" x="1518.66" y="-515.93" font-family="Arial" font-size="9.00" fill="#ff69b4">final features</text>
</g>
<!-- emotion_predictions -->
<g id="node24" class="node">
<title>emotion_predictions</title>
<polygon fill="#9b59b6" stroke="#9b59b6" points="1131.16,-854.13 1033.16,-854.13 1033.16,-758.13 1137.16,-758.13 1137.16,-848.13 1131.16,-854.13"/>
<polyline fill="none" stroke="#9b59b6" points="1131.16,-854.13 1131.16,-848.13 "/>
<polyline fill="none" stroke="#9b59b6" points="1137.16,-848.13 1131.16,-848.13 "/>
<text text-anchor="middle" x="1085.16" y="-842.13" font-family="Arial" font-size="10.00">Emotion Predictions</text>
<text text-anchor="middle" x="1085.16" y="-831.13" font-family="Arial" font-size="10.00">• Anger</text>
<text text-anchor="middle" x="1085.16" y="-820.13" font-family="Arial" font-size="10.00">• Disgust</text>
<text text-anchor="middle" x="1085.16" y="-809.13" font-family="Arial" font-size="10.00">• Fear</text>
<text text-anchor="middle" x="1085.16" y="-798.13" font-family="Arial" font-size="10.00">• Joy</text>
<text text-anchor="middle" x="1085.16" y="-787.13" font-family="Arial" font-size="10.00">• Neutral</text>
<text text-anchor="middle" x="1085.16" y="-776.13" font-family="Arial" font-size="10.00">• Sadness</text>
<text text-anchor="middle" x="1085.16" y="-765.13" font-family="Arial" font-size="10.00">• Surprise</text>
</g>
<!-- classifier_head&#45;&gt;emotion_predictions -->
<g id="edge31" class="edge">
<title>classifier_head&#45;&gt;emotion_predictions</title>
<path fill="none" stroke="white" d="M1123.32,-971.9C1116.99,-944.59 1106.7,-900.13 1098.4,-864.27"/>
<polygon fill="white" stroke="white" points="1101.78,-863.36 1096.11,-854.41 1094.96,-864.94 1101.78,-863.36"/>
<text text-anchor="middle" x="1135.66" y="-910.93" font-family="Arial" font-size="9.00" fill="#ff69b4">classification</text>
</g>
<!-- loss_function -->
<g id="node25" class="node">
<title>loss_function</title>
<polygon fill="#ff69b4" stroke="#ff69b4" points="918.16,-634.63 768.16,-634.63 768.16,-582.63 918.16,-582.63 918.16,-634.63"/>
<text text-anchor="middle" x="843.16" y="-622.63" font-family="Arial" font-size="10.00">Loss Function</text>
<text text-anchor="middle" x="843.16" y="-611.63" font-family="Arial" font-size="10.00">• EnhancedAdaptiveFocalLoss</text>
<text text-anchor="middle" x="843.16" y="-600.63" font-family="Arial" font-size="10.00">• Class weighting</text>
<text text-anchor="middle" x="843.16" y="-589.63" font-family="Arial" font-size="10.00">• Regularization</text>
</g>
<!-- emotion_predictions&#45;&gt;loss_function -->
<g id="edge32" class="edge">
<title>emotion_predictions&#45;&gt;loss_function</title>
<path fill="none" stroke="white" d="M1032.95,-762.95C987.62,-726.33 923,-674.12 882.08,-641.07"/>
<polygon fill="white" stroke="white" points="884.2,-638.28 874.22,-634.72 879.8,-643.73 884.2,-638.28"/>
<text text-anchor="middle" x="983.66" y="-696.93" font-family="Arial" font-size="9.00" fill="#9b59b6">compute loss</text>
</g>
<!-- evaluation_metrics -->
<g id="node27" class="node">
<title>evaluation_metrics</title>
<polygon fill="#9b59b6" stroke="#9b59b6" points="1145.66,-640.13 1142.66,-644.13 1121.66,-644.13 1118.66,-640.13 1004.66,-640.13 1004.66,-577.13 1145.66,-577.13 1145.66,-640.13"/>
<text text-anchor="middle" x="1075.16" y="-628.13" font-family="Arial" font-size="10.00">Evaluation Metrics</text>
<text text-anchor="middle" x="1075.16" y="-617.13" font-family="Arial" font-size="10.00">• Accuracy</text>
<text text-anchor="middle" x="1075.16" y="-606.13" font-family="Arial" font-size="10.00">• F1&#45;score (Weighted/Macro)</text>
<text text-anchor="middle" x="1075.16" y="-595.13" font-family="Arial" font-size="10.00">• Precision &amp; Recall</text>
<text text-anchor="middle" x="1075.16" y="-584.13" font-family="Arial" font-size="10.00">• Confusion Matrix</text>
</g>
<!-- emotion_predictions&#45;&gt;evaluation_metrics -->
<g id="edge37" class="edge">
<title>emotion_predictions&#45;&gt;evaluation_metrics</title>
<path fill="none" stroke="white" d="M1082.74,-757.8C1081.06,-725.01 1078.85,-681.79 1077.25,-650.5"/>
<polygon fill="white" stroke="white" points="1080.74,-650.18 1076.73,-640.37 1073.75,-650.54 1080.74,-650.18"/>
<text text-anchor="middle" x="1097.16" y="-696.93" font-family="Arial" font-size="9.00" fill="#9b59b6">evaluate</text>
</g>
<!-- optimizer -->
<g id="node26" class="node">
<title>optimizer</title>
<polygon fill="#ff69b4" stroke="#ff69b4" points="955.66,-433.69 826.66,-433.69 826.66,-381.69 955.66,-381.69 955.66,-433.69"/>
<text text-anchor="middle" x="891.16" y="-421.69" font-family="Arial" font-size="10.00">Optimizer</text>
<text text-anchor="middle" x="891.16" y="-410.69" font-family="Arial" font-size="10.00">• AdamW</text>
<text text-anchor="middle" x="891.16" y="-399.69" font-family="Arial" font-size="10.00">• Learning rate scheduling</text>
<text text-anchor="middle" x="891.16" y="-388.69" font-family="Arial" font-size="10.00">• Gradient clipping</text>
</g>
<!-- loss_function&#45;&gt;optimizer -->
<g id="edge33" class="edge">
<title>loss_function&#45;&gt;optimizer</title>
<path fill="none" stroke="white" d="M849.24,-582.43C857.71,-547.33 873.1,-483.54 882.69,-443.79"/>
<polygon fill="white" stroke="white" points="886.11,-444.54 885.06,-433.99 879.31,-442.89 886.11,-444.54"/>
<text text-anchor="middle" x="900.16" y="-515.93" font-family="Arial" font-size="9.00" fill="#9b59b6">backpropagation</text>
</g>
<!-- optimizer&#45;&gt;bilstm_layer -->
<g id="edge34" class="edge">
<title>optimizer&#45;&gt;bilstm_layer</title>
<path fill="none" stroke="#ffff00" stroke-dasharray="5,2" d="M851.23,-381.68C819.85,-361.47 775.52,-331.63 739.16,-302.25 717.54,-284.78 694.91,-263.66 676.66,-245.83"/>
<polygon fill="#ffff00" stroke="#ffff00" points="678.7,-242.93 669.12,-238.41 673.79,-247.92 678.7,-242.93"/>
<text text-anchor="middle" x="770.66" y="-295.05" font-family="Arial" font-size="9.00" fill="#ffff00">update weights</text>
</g>
<!-- optimizer&#45;&gt;gnn_layers -->
<g id="edge35" class="edge">
<title>optimizer&#45;&gt;gnn_layers</title>
<path fill="none" stroke="#ffff00" stroke-dasharray="5,2" d="M939.42,-381.49C1006.57,-346.43 1128.51,-282.76 1204.66,-243"/>
<polygon fill="#ffff00" stroke="#ffff00" points="1206.47,-246 1213.71,-238.27 1203.23,-239.8 1206.47,-246"/>
<text text-anchor="middle" x="1135.66" y="-295.05" font-family="Arial" font-size="9.00" fill="#ffff00">update weights</text>
</g>
<!-- optimizer&#45;&gt;classifier_head -->
<g id="edge36" class="edge">
<title>optimizer&#45;&gt;classifier_head</title>
<path fill="none" stroke="#ffff00" stroke-dasharray="5,2" d="M955.72,-424.43C1027.24,-445.71 1139.07,-491.28 1189.16,-577.13 1265.55,-708.05 1229.67,-773.86 1183.16,-918.13 1177.84,-934.63 1167.89,-950.8 1157.96,-964.17"/>
<polygon fill="#ffff00" stroke="#ffff00" points="1155.17,-962.06 1151.83,-972.12 1160.71,-966.34 1155.17,-962.06"/>
<text text-anchor="middle" x="1263.66" y="-696.93" font-family="Arial" font-size="9.00" fill="#ffff00">update weights</text>
</g>
</g>
</svg>
